<mxfile host="Electron" modified="2023-06-01T21:08:48.232Z" agent="Mozilla/5.0 (Windows NT 10.0; Win64; x64) AppleWebKit/537.36 (KHTML, like Gecko) draw.io/21.2.8 Chrome/112.0.5615.165 Electron/24.2.0 Safari/537.36" etag="geS2Af_KUQL32PzMeXyU" version="21.2.8" type="device">
  <diagram name="Layout" id="eOi9ijdWCz7-imKwDL1J">
    <mxGraphModel dx="865" dy="814" grid="1" gridSize="1" guides="1" tooltips="1" connect="1" arrows="1" fold="1" page="1" pageScale="1" pageWidth="1654" pageHeight="1169" math="0" shadow="0">
      <root>
        <mxCell id="0" />
        <mxCell id="1" parent="0" />
        <mxCell id="J1uk7EdWoCkrVQCFooa9-13" value="" style="rounded=0;whiteSpace=wrap;html=1;fillColor=#9AC7BF;strokeColor=#0e8088;opacity=60;strokeWidth=3;" parent="1" vertex="1">
          <mxGeometry x="360" y="320" width="720" height="320" as="geometry" />
        </mxCell>
        <mxCell id="6FVcj39iq6i3qzFbRGXr-121" value="" style="rounded=0;whiteSpace=wrap;html=1;fillColor=none;strokeWidth=3;dashed=1;dashPattern=1 2;strokeColor=#FF66FF;" parent="1" vertex="1">
          <mxGeometry x="565" y="325" width="30" height="30" as="geometry" />
        </mxCell>
        <mxCell id="J1uk7EdWoCkrVQCFooa9-5" value="" style="rounded=0;whiteSpace=wrap;html=1;fillColor=#fad9d5;strokeColor=#ae4132;opacity=60;strokeWidth=3;" parent="1" vertex="1">
          <mxGeometry x="360" y="800" width="200" height="160" as="geometry" />
        </mxCell>
        <mxCell id="6FVcj39iq6i3qzFbRGXr-6" value="" style="rounded=0;whiteSpace=wrap;html=1;fillColor=none;dashed=1;dashPattern=8 8;" parent="1" vertex="1">
          <mxGeometry x="495" y="815" width="50" height="130" as="geometry" />
        </mxCell>
        <mxCell id="6FVcj39iq6i3qzFbRGXr-167" value="" style="rounded=0;whiteSpace=wrap;html=1;fillColor=none;dashed=1;strokeColor=#FF66FF;strokeWidth=3;" parent="1" vertex="1">
          <mxGeometry x="500" y="820" width="40" height="35" as="geometry" />
        </mxCell>
        <mxCell id="6FVcj39iq6i3qzFbRGXr-168" value="" style="rounded=0;whiteSpace=wrap;html=1;fillColor=none;dashed=1;strokeColor=#FF66FF;strokeWidth=3;" parent="1" vertex="1">
          <mxGeometry x="500" y="862.5" width="40" height="35" as="geometry" />
        </mxCell>
        <mxCell id="6FVcj39iq6i3qzFbRGXr-169" value="" style="rounded=0;whiteSpace=wrap;html=1;fillColor=none;dashed=1;strokeColor=#FF66FF;strokeWidth=3;" parent="1" vertex="1">
          <mxGeometry x="500" y="905" width="40" height="35" as="geometry" />
        </mxCell>
        <mxCell id="J1uk7EdWoCkrVQCFooa9-4" value="" style="rounded=0;whiteSpace=wrap;html=1;fillColor=#fad7ac;strokeColor=#b46504;opacity=60;strokeWidth=3;" parent="1" vertex="1">
          <mxGeometry x="880" y="800" width="200" height="160" as="geometry" />
        </mxCell>
        <mxCell id="6FVcj39iq6i3qzFbRGXr-31" value="" style="rounded=0;whiteSpace=wrap;html=1;fillColor=none;dashed=1;dashPattern=8 8;" parent="1" vertex="1">
          <mxGeometry x="895" y="815" width="50" height="130" as="geometry" />
        </mxCell>
        <mxCell id="6FVcj39iq6i3qzFbRGXr-164" value="" style="rounded=0;whiteSpace=wrap;html=1;fillColor=none;dashed=1;strokeColor=#FF66FF;strokeWidth=3;" parent="1" vertex="1">
          <mxGeometry x="900" y="820" width="40" height="35" as="geometry" />
        </mxCell>
        <mxCell id="6FVcj39iq6i3qzFbRGXr-165" value="" style="rounded=0;whiteSpace=wrap;html=1;fillColor=none;dashed=1;strokeColor=#FF66FF;strokeWidth=3;" parent="1" vertex="1">
          <mxGeometry x="900" y="862.5" width="40" height="35" as="geometry" />
        </mxCell>
        <mxCell id="6FVcj39iq6i3qzFbRGXr-166" value="" style="rounded=0;whiteSpace=wrap;html=1;fillColor=none;dashed=1;strokeColor=#FF66FF;strokeWidth=3;" parent="1" vertex="1">
          <mxGeometry x="900" y="905" width="40" height="35" as="geometry" />
        </mxCell>
        <mxCell id="isxg0w8kor7gR2DkEYVr-30" style="edgeStyle=orthogonalEdgeStyle;rounded=0;orthogonalLoop=1;jettySize=auto;html=1;entryX=0.978;entryY=0;entryDx=0;entryDy=0;entryPerimeter=0;exitX=0.5;exitY=1;exitDx=0;exitDy=0;startArrow=block;startFill=1;endArrow=block;endFill=1;" parent="1" source="6FVcj39iq6i3qzFbRGXr-149" target="J1uk7EdWoCkrVQCFooa9-3" edge="1">
          <mxGeometry relative="1" as="geometry">
            <Array as="points">
              <mxPoint x="873" y="638" />
            </Array>
          </mxGeometry>
        </mxCell>
        <mxCell id="6FVcj39iq6i3qzFbRGXr-149" value="" style="rounded=0;whiteSpace=wrap;html=1;fillColor=#FFCCCC;strokeColor=#9933FF;strokeWidth=2;" parent="1" vertex="1">
          <mxGeometry x="868" y="560" width="10" height="40" as="geometry" />
        </mxCell>
        <mxCell id="6FVcj39iq6i3qzFbRGXr-72" value="" style="rounded=0;whiteSpace=wrap;html=1;fillColor=none;strokeWidth=3;dashed=1;dashPattern=1 2;strokeColor=#FF66FF;" parent="1" vertex="1">
          <mxGeometry x="765" y="325" width="30" height="30" as="geometry" />
        </mxCell>
        <mxCell id="6FVcj39iq6i3qzFbRGXr-48" value="" style="rounded=0;whiteSpace=wrap;html=1;fillColor=none;strokeWidth=3;dashed=1;dashPattern=1 2;strokeColor=#FF66FF;" parent="1" vertex="1">
          <mxGeometry x="845" y="525" width="30" height="30" as="geometry" />
        </mxCell>
        <mxCell id="J1uk7EdWoCkrVQCFooa9-2" value="" style="rounded=0;whiteSpace=wrap;html=1;fillColor=#e1d5e7;strokeColor=#9673a6;opacity=60;strokeWidth=3;" parent="1" vertex="1">
          <mxGeometry x="640" y="960" width="160" height="120" as="geometry" />
        </mxCell>
        <mxCell id="J1uk7EdWoCkrVQCFooa9-3" value="" style="rounded=0;whiteSpace=wrap;html=1;fillColor=#7791b6;strokeColor=#6c8ebf;opacity=60;" parent="1" vertex="1">
          <mxGeometry x="560" y="640" width="320" height="320" as="geometry" />
        </mxCell>
        <mxCell id="J1uk7EdWoCkrVQCFooa9-6" value="" style="rounded=0;whiteSpace=wrap;html=1;fillColor=#7791b6;strokeColor=#6c8ebf;fillStyle=auto;opacity=60;" parent="1" vertex="1">
          <mxGeometry x="880" y="640" width="200" height="160" as="geometry" />
        </mxCell>
        <mxCell id="J1uk7EdWoCkrVQCFooa9-7" value="" style="rounded=0;whiteSpace=wrap;html=1;fillColor=#7791b6;strokeColor=#6c8ebf;opacity=60;" parent="1" vertex="1">
          <mxGeometry x="360" y="640" width="200" height="160" as="geometry" />
        </mxCell>
        <mxCell id="6FVcj39iq6i3qzFbRGXr-100" style="edgeStyle=orthogonalEdgeStyle;rounded=0;orthogonalLoop=1;jettySize=auto;html=1;entryX=0.5;entryY=1;entryDx=0;entryDy=0;strokeColor=#3333FF;dashed=1;dashPattern=12 12;" parent="1" source="J1uk7EdWoCkrVQCFooa9-12" target="6FVcj39iq6i3qzFbRGXr-97" edge="1">
          <mxGeometry relative="1" as="geometry">
            <Array as="points">
              <mxPoint x="500" y="730" />
              <mxPoint x="940" y="730" />
            </Array>
          </mxGeometry>
        </mxCell>
        <mxCell id="J1uk7EdWoCkrVQCFooa9-12" value="&lt;b&gt;&lt;font color=&quot;#292929&quot; style=&quot;font-size: 13px;&quot;&gt;S&lt;/font&gt;&lt;/b&gt;" style="ellipse;whiteSpace=wrap;html=1;aspect=fixed;fillColor=#33FF99;" parent="1" vertex="1">
          <mxGeometry x="490" y="645" width="20" height="20" as="geometry" />
        </mxCell>
        <mxCell id="J1uk7EdWoCkrVQCFooa9-19" style="edgeStyle=orthogonalEdgeStyle;rounded=0;orthogonalLoop=1;jettySize=auto;html=1;entryX=0.5;entryY=1;entryDx=0;entryDy=0;curved=1;strokeColor=#D5E8D4;" parent="1" source="J1uk7EdWoCkrVQCFooa9-15" target="J1uk7EdWoCkrVQCFooa9-12" edge="1">
          <mxGeometry relative="1" as="geometry" />
        </mxCell>
        <mxCell id="J1uk7EdWoCkrVQCFooa9-15" value="Key S" style="swimlane;fontStyle=1;childLayout=stackLayout;horizontal=1;startSize=30;horizontalStack=0;resizeParent=1;resizeParentMax=0;resizeLast=0;collapsible=1;marginBottom=0;whiteSpace=wrap;html=1;fillColor=#D5E8D4;fontColor=#303030;" parent="1" vertex="1">
          <mxGeometry x="80" y="730" width="220" height="70" as="geometry" />
        </mxCell>
        <mxCell id="J1uk7EdWoCkrVQCFooa9-16" value="Key to the labyrinth Door L.1;&lt;br&gt;Tag: &quot;UnlockLabyrinth&quot;." style="text;strokeColor=none;fillColor=default;align=left;verticalAlign=middle;spacingLeft=4;spacingRight=4;overflow=hidden;points=[[0,0.5],[1,0.5]];portConstraint=eastwest;rotatable=0;whiteSpace=wrap;html=1;" parent="J1uk7EdWoCkrVQCFooa9-15" vertex="1">
          <mxGeometry y="30" width="220" height="40" as="geometry" />
        </mxCell>
        <mxCell id="J1uk7EdWoCkrVQCFooa9-23" style="edgeStyle=orthogonalEdgeStyle;rounded=0;orthogonalLoop=1;jettySize=auto;html=1;entryX=0.5;entryY=1;entryDx=0;entryDy=0;curved=1;strokeColor=#FFCCCC;" parent="1" source="J1uk7EdWoCkrVQCFooa9-21" target="J1uk7EdWoCkrVQCFooa9-20" edge="1">
          <mxGeometry relative="1" as="geometry" />
        </mxCell>
        <mxCell id="J1uk7EdWoCkrVQCFooa9-21" value="Doors" style="swimlane;fontStyle=1;childLayout=stackLayout;horizontal=1;startSize=30;horizontalStack=0;resizeParent=1;resizeParentMax=0;resizeLast=0;collapsible=1;marginBottom=0;whiteSpace=wrap;html=1;fillColor=#FFCCCC;fontColor=#303030;" parent="1" vertex="1">
          <mxGeometry x="650" y="995" width="140" height="60" as="geometry" />
        </mxCell>
        <mxCell id="J1uk7EdWoCkrVQCFooa9-22" value="Open door to the Hall" style="text;strokeColor=none;fillColor=default;align=left;verticalAlign=middle;spacingLeft=4;spacingRight=4;overflow=hidden;points=[[0,0.5],[1,0.5]];portConstraint=eastwest;rotatable=0;whiteSpace=wrap;html=1;" parent="J1uk7EdWoCkrVQCFooa9-21" vertex="1">
          <mxGeometry y="30" width="140" height="30" as="geometry" />
        </mxCell>
        <mxCell id="J1uk7EdWoCkrVQCFooa9-27" style="edgeStyle=orthogonalEdgeStyle;rounded=0;orthogonalLoop=1;jettySize=auto;html=1;entryX=0.125;entryY=1.007;entryDx=0;entryDy=0;entryPerimeter=0;curved=1;strokeColor=#D4E1F5;" parent="1" source="J1uk7EdWoCkrVQCFooa9-24" target="J1uk7EdWoCkrVQCFooa9-3" edge="1">
          <mxGeometry relative="1" as="geometry">
            <mxPoint x="600" y="1030" as="targetPoint" />
          </mxGeometry>
        </mxCell>
        <mxCell id="J1uk7EdWoCkrVQCFooa9-24" value="Rooms" style="swimlane;fontStyle=1;childLayout=stackLayout;horizontal=1;startSize=30;horizontalStack=0;resizeParent=1;resizeParentMax=0;resizeLast=0;collapsible=1;marginBottom=0;whiteSpace=wrap;html=1;fillColor=#D4E1F5;fontColor=#303030;" parent="1" vertex="1">
          <mxGeometry x="490" y="1010" width="140" height="60" as="geometry" />
        </mxCell>
        <mxCell id="J1uk7EdWoCkrVQCFooa9-25" value="Main Hall" style="text;strokeColor=none;fillColor=default;align=left;verticalAlign=middle;spacingLeft=4;spacingRight=4;overflow=hidden;points=[[0,0.5],[1,0.5]];portConstraint=eastwest;rotatable=0;whiteSpace=wrap;html=1;" parent="J1uk7EdWoCkrVQCFooa9-24" vertex="1">
          <mxGeometry y="30" width="140" height="30" as="geometry" />
        </mxCell>
        <mxCell id="J1uk7EdWoCkrVQCFooa9-31" style="edgeStyle=orthogonalEdgeStyle;rounded=0;orthogonalLoop=1;jettySize=auto;html=1;entryX=0.5;entryY=1;entryDx=0;entryDy=0;curved=1;strokeColor=#D4E1F5;" parent="1" source="J1uk7EdWoCkrVQCFooa9-28" target="J1uk7EdWoCkrVQCFooa9-2" edge="1">
          <mxGeometry relative="1" as="geometry" />
        </mxCell>
        <mxCell id="J1uk7EdWoCkrVQCFooa9-28" value="Rooms" style="swimlane;fontStyle=1;childLayout=stackLayout;horizontal=1;startSize=30;horizontalStack=0;resizeParent=1;resizeParentMax=0;resizeLast=0;collapsible=1;marginBottom=0;whiteSpace=wrap;html=1;fillColor=#D4E1F5;fontColor=#303030;" parent="1" vertex="1">
          <mxGeometry x="820" y="1100" width="140" height="60" as="geometry" />
        </mxCell>
        <mxCell id="J1uk7EdWoCkrVQCFooa9-29" value="Starting platform" style="text;strokeColor=none;fillColor=default;align=left;verticalAlign=middle;spacingLeft=4;spacingRight=4;overflow=hidden;points=[[0,0.5],[1,0.5]];portConstraint=eastwest;rotatable=0;whiteSpace=wrap;html=1;" parent="J1uk7EdWoCkrVQCFooa9-28" vertex="1">
          <mxGeometry y="30" width="140" height="30" as="geometry" />
        </mxCell>
        <mxCell id="J1uk7EdWoCkrVQCFooa9-33" value="" style="rounded=0;whiteSpace=wrap;html=1;" parent="1" vertex="1">
          <mxGeometry x="480" y="795" width="40" height="10" as="geometry" />
        </mxCell>
        <mxCell id="J1uk7EdWoCkrVQCFooa9-38" value="" style="rounded=0;whiteSpace=wrap;html=1;" parent="1" vertex="1">
          <mxGeometry x="920" y="795" width="40" height="10" as="geometry" />
        </mxCell>
        <mxCell id="J1uk7EdWoCkrVQCFooa9-42" style="edgeStyle=orthogonalEdgeStyle;rounded=0;orthogonalLoop=1;jettySize=auto;html=1;entryX=0.933;entryY=1.033;entryDx=0;entryDy=0;curved=1;strokeColor=#FFCCCC;entryPerimeter=0;" parent="1" source="J1uk7EdWoCkrVQCFooa9-40" target="J1uk7EdWoCkrVQCFooa9-38" edge="1">
          <mxGeometry relative="1" as="geometry">
            <Array as="points">
              <mxPoint x="957" y="875" />
            </Array>
          </mxGeometry>
        </mxCell>
        <mxCell id="J1uk7EdWoCkrVQCFooa9-40" value="Doors" style="swimlane;fontStyle=1;childLayout=stackLayout;horizontal=1;startSize=30;horizontalStack=0;resizeParent=1;resizeParentMax=0;resizeLast=0;collapsible=1;marginBottom=0;whiteSpace=wrap;html=1;fillColor=#FFCCCC;fontColor=#303030;" parent="1" vertex="1">
          <mxGeometry x="1120" y="845" width="165" height="60" as="geometry" />
        </mxCell>
        <mxCell id="J1uk7EdWoCkrVQCFooa9-41" value="Opened doorway to Room B" style="text;strokeColor=none;fillColor=default;align=left;verticalAlign=middle;spacingLeft=4;spacingRight=4;overflow=hidden;points=[[0,0.5],[1,0.5]];portConstraint=eastwest;rotatable=0;whiteSpace=wrap;html=1;" parent="J1uk7EdWoCkrVQCFooa9-40" vertex="1">
          <mxGeometry y="30" width="165" height="30" as="geometry" />
        </mxCell>
        <mxCell id="J1uk7EdWoCkrVQCFooa9-45" style="edgeStyle=orthogonalEdgeStyle;rounded=0;orthogonalLoop=1;jettySize=auto;html=1;entryX=0.145;entryY=1.01;entryDx=0;entryDy=0;curved=1;strokeColor=#FFCCCC;entryPerimeter=0;" parent="1" source="J1uk7EdWoCkrVQCFooa9-43" target="J1uk7EdWoCkrVQCFooa9-33" edge="1">
          <mxGeometry relative="1" as="geometry">
            <Array as="points">
              <mxPoint x="486" y="860" />
            </Array>
          </mxGeometry>
        </mxCell>
        <mxCell id="J1uk7EdWoCkrVQCFooa9-43" value="Doors" style="swimlane;fontStyle=1;childLayout=stackLayout;horizontal=1;startSize=30;horizontalStack=0;resizeParent=1;resizeParentMax=0;resizeLast=0;collapsible=1;marginBottom=0;whiteSpace=wrap;html=1;fillColor=#FFCCCC;fontColor=#303030;" parent="1" vertex="1">
          <mxGeometry x="80" y="830" width="165" height="60" as="geometry" />
        </mxCell>
        <mxCell id="J1uk7EdWoCkrVQCFooa9-44" value="Opened doorway to Room A" style="text;strokeColor=none;fillColor=default;align=left;verticalAlign=middle;spacingLeft=4;spacingRight=4;overflow=hidden;points=[[0,0.5],[1,0.5]];portConstraint=eastwest;rotatable=0;whiteSpace=wrap;html=1;" parent="J1uk7EdWoCkrVQCFooa9-43" vertex="1">
          <mxGeometry y="30" width="165" height="30" as="geometry" />
        </mxCell>
        <mxCell id="J1uk7EdWoCkrVQCFooa9-59" style="edgeStyle=orthogonalEdgeStyle;rounded=0;orthogonalLoop=1;jettySize=auto;html=1;entryX=0.08;entryY=0.994;entryDx=0;entryDy=0;entryPerimeter=0;curved=1;strokeColor=#D4E1F5;" parent="1" source="J1uk7EdWoCkrVQCFooa9-46" target="J1uk7EdWoCkrVQCFooa9-5" edge="1">
          <mxGeometry relative="1" as="geometry">
            <Array as="points">
              <mxPoint x="376" y="1030" />
            </Array>
          </mxGeometry>
        </mxCell>
        <mxCell id="J1uk7EdWoCkrVQCFooa9-46" value="Rooms" style="swimlane;fontStyle=1;childLayout=stackLayout;horizontal=1;startSize=30;horizontalStack=0;resizeParent=1;resizeParentMax=0;resizeLast=0;collapsible=1;marginBottom=0;whiteSpace=wrap;html=1;fillColor=#D4E1F5;fontColor=#303030;" parent="1" vertex="1">
          <mxGeometry x="80" y="1000" width="140" height="60" as="geometry" />
        </mxCell>
        <mxCell id="J1uk7EdWoCkrVQCFooa9-47" value="Room A" style="text;strokeColor=none;fillColor=default;align=left;verticalAlign=middle;spacingLeft=4;spacingRight=4;overflow=hidden;points=[[0,0.5],[1,0.5]];portConstraint=eastwest;rotatable=0;whiteSpace=wrap;html=1;" parent="J1uk7EdWoCkrVQCFooa9-46" vertex="1">
          <mxGeometry y="30" width="140" height="30" as="geometry" />
        </mxCell>
        <mxCell id="J1uk7EdWoCkrVQCFooa9-58" style="edgeStyle=orthogonalEdgeStyle;rounded=0;orthogonalLoop=1;jettySize=auto;html=1;entryX=0.181;entryY=1.007;entryDx=0;entryDy=0;entryPerimeter=0;curved=1;strokeColor=#D4E1F5;" parent="1" source="J1uk7EdWoCkrVQCFooa9-48" target="J1uk7EdWoCkrVQCFooa9-4" edge="1">
          <mxGeometry relative="1" as="geometry">
            <Array as="points">
              <mxPoint x="885" y="985" />
              <mxPoint x="916" y="985" />
            </Array>
          </mxGeometry>
        </mxCell>
        <mxCell id="J1uk7EdWoCkrVQCFooa9-48" value="Rooms" style="swimlane;fontStyle=1;childLayout=stackLayout;horizontal=1;startSize=30;horizontalStack=0;resizeParent=1;resizeParentMax=0;resizeLast=0;collapsible=1;marginBottom=0;whiteSpace=wrap;html=1;fillColor=#D4E1F5;fontColor=#303030;" parent="1" vertex="1">
          <mxGeometry x="815" y="1010" width="140" height="60" as="geometry" />
        </mxCell>
        <mxCell id="J1uk7EdWoCkrVQCFooa9-49" value="Room B" style="text;strokeColor=none;fillColor=default;align=left;verticalAlign=middle;spacingLeft=4;spacingRight=4;overflow=hidden;points=[[0,0.5],[1,0.5]];portConstraint=eastwest;rotatable=0;whiteSpace=wrap;html=1;" parent="J1uk7EdWoCkrVQCFooa9-48" vertex="1">
          <mxGeometry y="30" width="140" height="30" as="geometry" />
        </mxCell>
        <mxCell id="J1uk7EdWoCkrVQCFooa9-63" style="edgeStyle=orthogonalEdgeStyle;rounded=0;orthogonalLoop=1;jettySize=auto;html=1;curved=1;strokeColor=#D4E1F5;entryX=1;entryY=0.25;entryDx=0;entryDy=0;exitX=0;exitY=0.5;exitDx=0;exitDy=0;" parent="1" source="J1uk7EdWoCkrVQCFooa9-51" target="J1uk7EdWoCkrVQCFooa9-13" edge="1">
          <mxGeometry relative="1" as="geometry">
            <Array as="points">
              <mxPoint x="1185" y="385" />
              <mxPoint x="1185" y="400" />
            </Array>
            <mxPoint x="920" y="315" as="targetPoint" />
          </mxGeometry>
        </mxCell>
        <mxCell id="J1uk7EdWoCkrVQCFooa9-50" value="Rooms" style="swimlane;fontStyle=1;childLayout=stackLayout;horizontal=1;startSize=30;horizontalStack=0;resizeParent=1;resizeParentMax=0;resizeLast=0;collapsible=1;marginBottom=0;whiteSpace=wrap;html=1;fillColor=#D4E1F5;fontColor=#303030;" parent="1" vertex="1">
          <mxGeometry x="1270" y="340" width="140" height="60" as="geometry" />
        </mxCell>
        <mxCell id="J1uk7EdWoCkrVQCFooa9-51" value="Labyrinth" style="text;strokeColor=none;fillColor=default;align=left;verticalAlign=middle;spacingLeft=4;spacingRight=4;overflow=hidden;points=[[0,0.5],[1,0.5]];portConstraint=eastwest;rotatable=0;whiteSpace=wrap;html=1;" parent="J1uk7EdWoCkrVQCFooa9-50" vertex="1">
          <mxGeometry y="30" width="140" height="30" as="geometry" />
        </mxCell>
        <mxCell id="J1uk7EdWoCkrVQCFooa9-53" value="" style="rounded=0;whiteSpace=wrap;html=1;fillColor=#FFCCCC;strokeColor=#9933FF;strokeWidth=2;" parent="1" vertex="1">
          <mxGeometry x="915" y="640" width="10" height="40" as="geometry" />
        </mxCell>
        <mxCell id="J1uk7EdWoCkrVQCFooa9-52" value="" style="rounded=0;whiteSpace=wrap;html=1;fillColor=#FFCCCC;strokeColor=#9933FF;strokeWidth=2;" parent="1" vertex="1">
          <mxGeometry x="920" y="635" width="40" height="10" as="geometry" />
        </mxCell>
        <mxCell id="J1uk7EdWoCkrVQCFooa9-54" value="" style="endArrow=none;html=1;rounded=0;strokeWidth=3;strokeColor=#394C66;" parent="1" edge="1">
          <mxGeometry width="50" height="50" relative="1" as="geometry">
            <mxPoint x="1040" y="680" as="sourcePoint" />
            <mxPoint x="920" y="680" as="targetPoint" />
          </mxGeometry>
        </mxCell>
        <mxCell id="J1uk7EdWoCkrVQCFooa9-55" value="" style="endArrow=none;html=1;rounded=0;strokeWidth=3;strokeColor=#394C66;" parent="1" edge="1">
          <mxGeometry width="50" height="50" relative="1" as="geometry">
            <mxPoint x="1040" y="760" as="sourcePoint" />
            <mxPoint x="1040" y="680" as="targetPoint" />
          </mxGeometry>
        </mxCell>
        <mxCell id="J1uk7EdWoCkrVQCFooa9-56" value="" style="endArrow=none;html=1;rounded=0;strokeWidth=3;strokeColor=#394C66;" parent="1" edge="1">
          <mxGeometry width="50" height="50" relative="1" as="geometry">
            <mxPoint x="1040" y="760" as="sourcePoint" />
            <mxPoint x="960" y="760" as="targetPoint" />
          </mxGeometry>
        </mxCell>
        <mxCell id="J1uk7EdWoCkrVQCFooa9-62" style="edgeStyle=orthogonalEdgeStyle;rounded=0;orthogonalLoop=1;jettySize=auto;html=1;entryX=0;entryY=0.5;entryDx=0;entryDy=0;curved=1;strokeColor=#FFCCCC;exitX=1;exitY=0.5;exitDx=0;exitDy=0;" parent="1" source="J1uk7EdWoCkrVQCFooa9-61" edge="1">
          <mxGeometry relative="1" as="geometry">
            <mxPoint x="355" y="700" as="targetPoint" />
            <Array as="points">
              <mxPoint x="320" y="683" />
              <mxPoint x="320" y="700" />
            </Array>
          </mxGeometry>
        </mxCell>
        <mxCell id="J1uk7EdWoCkrVQCFooa9-60" value="Door Dungeon" style="swimlane;fontStyle=1;childLayout=stackLayout;horizontal=1;startSize=30;horizontalStack=0;resizeParent=1;resizeParentMax=0;resizeLast=0;collapsible=1;marginBottom=0;whiteSpace=wrap;html=1;fillColor=#FFCCCC;fontColor=#303030;" parent="1" vertex="1">
          <mxGeometry x="80" y="620" width="220" height="95" as="geometry" />
        </mxCell>
        <mxCell id="J1uk7EdWoCkrVQCFooa9-61" value="Closed door to the stairways.&lt;br&gt;Opens when all A.# and all B.# treasures are collected.&lt;br&gt;Wooden gates ROTATES once." style="text;strokeColor=none;fillColor=default;align=left;verticalAlign=middle;spacingLeft=4;spacingRight=4;overflow=hidden;points=[[0,0.5],[1,0.5]];portConstraint=eastwest;rotatable=0;whiteSpace=wrap;html=1;" parent="J1uk7EdWoCkrVQCFooa9-60" vertex="1">
          <mxGeometry y="30" width="220" height="65" as="geometry" />
        </mxCell>
        <mxCell id="J1uk7EdWoCkrVQCFooa9-64" value="" style="endArrow=none;html=1;rounded=0;exitX=0;exitY=0.25;exitDx=0;exitDy=0;strokeColor=#4F6662;strokeWidth=3;" parent="1" source="J1uk7EdWoCkrVQCFooa9-52" edge="1">
          <mxGeometry width="50" height="50" relative="1" as="geometry">
            <mxPoint x="785" y="605" as="sourcePoint" />
            <mxPoint x="920" y="600" as="targetPoint" />
          </mxGeometry>
        </mxCell>
        <mxCell id="J1uk7EdWoCkrVQCFooa9-65" value="" style="endArrow=none;html=1;rounded=0;strokeColor=#4F6662;strokeWidth=3;" parent="1" edge="1">
          <mxGeometry width="50" height="50" relative="1" as="geometry">
            <mxPoint x="920" y="600" as="sourcePoint" />
            <mxPoint x="1040" y="600" as="targetPoint" />
          </mxGeometry>
        </mxCell>
        <mxCell id="J1uk7EdWoCkrVQCFooa9-67" value="" style="endArrow=none;html=1;rounded=0;strokeColor=#4F6662;strokeWidth=3;" parent="1" edge="1">
          <mxGeometry width="50" height="50" relative="1" as="geometry">
            <mxPoint x="1040" y="480" as="sourcePoint" />
            <mxPoint x="1040" y="600" as="targetPoint" />
          </mxGeometry>
        </mxCell>
        <mxCell id="J1uk7EdWoCkrVQCFooa9-73" value="" style="endArrow=none;html=1;rounded=0;strokeColor=#4F6662;strokeWidth=3;" parent="1" edge="1">
          <mxGeometry width="50" height="50" relative="1" as="geometry">
            <mxPoint x="1040" y="480" as="sourcePoint" />
            <mxPoint x="1040" y="600" as="targetPoint" />
          </mxGeometry>
        </mxCell>
        <mxCell id="J1uk7EdWoCkrVQCFooa9-76" value="" style="endArrow=none;html=1;rounded=0;strokeColor=#4F6662;strokeWidth=3;" parent="1" edge="1">
          <mxGeometry width="50" height="50" relative="1" as="geometry">
            <mxPoint x="1000" y="480" as="sourcePoint" />
            <mxPoint x="1040" y="480" as="targetPoint" />
          </mxGeometry>
        </mxCell>
        <mxCell id="J1uk7EdWoCkrVQCFooa9-77" value="" style="endArrow=none;html=1;rounded=0;strokeColor=#4F6662;strokeWidth=3;" parent="1" edge="1">
          <mxGeometry width="50" height="50" relative="1" as="geometry">
            <mxPoint x="920" y="480" as="sourcePoint" />
            <mxPoint x="960" y="480" as="targetPoint" />
          </mxGeometry>
        </mxCell>
        <mxCell id="J1uk7EdWoCkrVQCFooa9-78" value="" style="endArrow=none;html=1;rounded=0;strokeColor=#4F6662;strokeWidth=3;" parent="1" edge="1">
          <mxGeometry width="50" height="50" relative="1" as="geometry">
            <mxPoint x="920" y="480" as="sourcePoint" />
            <mxPoint x="920" y="600" as="targetPoint" />
          </mxGeometry>
        </mxCell>
        <mxCell id="J1uk7EdWoCkrVQCFooa9-79" value="" style="endArrow=none;html=1;rounded=0;strokeColor=#4F6662;strokeWidth=3;" parent="1" edge="1">
          <mxGeometry width="50" height="50" relative="1" as="geometry">
            <mxPoint x="800" y="480" as="sourcePoint" />
            <mxPoint x="920" y="480" as="targetPoint" />
          </mxGeometry>
        </mxCell>
        <mxCell id="J1uk7EdWoCkrVQCFooa9-80" value="" style="endArrow=none;html=1;rounded=0;strokeColor=#4F6662;strokeWidth=3;" parent="1" edge="1">
          <mxGeometry width="50" height="50" relative="1" as="geometry">
            <mxPoint x="840" y="440" as="sourcePoint" />
            <mxPoint x="1080" y="440" as="targetPoint" />
          </mxGeometry>
        </mxCell>
        <mxCell id="J1uk7EdWoCkrVQCFooa9-81" value="" style="endArrow=none;html=1;rounded=0;strokeColor=#4F6662;strokeWidth=3;" parent="1" edge="1">
          <mxGeometry width="50" height="50" relative="1" as="geometry">
            <mxPoint x="840" y="360" as="sourcePoint" />
            <mxPoint x="840" y="440" as="targetPoint" />
          </mxGeometry>
        </mxCell>
        <mxCell id="J1uk7EdWoCkrVQCFooa9-82" value="" style="endArrow=none;html=1;rounded=0;strokeColor=#4F6662;strokeWidth=3;" parent="1" edge="1">
          <mxGeometry width="50" height="50" relative="1" as="geometry">
            <mxPoint x="840" y="360" as="sourcePoint" />
            <mxPoint x="1040" y="360" as="targetPoint" />
          </mxGeometry>
        </mxCell>
        <mxCell id="J1uk7EdWoCkrVQCFooa9-83" value="" style="endArrow=none;html=1;rounded=0;strokeColor=#4F6662;strokeWidth=3;" parent="1" edge="1">
          <mxGeometry width="50" height="50" relative="1" as="geometry">
            <mxPoint x="1040" y="360" as="sourcePoint" />
            <mxPoint x="1040" y="400" as="targetPoint" />
          </mxGeometry>
        </mxCell>
        <mxCell id="J1uk7EdWoCkrVQCFooa9-86" value="" style="endArrow=none;html=1;rounded=0;strokeColor=#4F6662;strokeWidth=3;" parent="1" edge="1">
          <mxGeometry width="50" height="50" relative="1" as="geometry">
            <mxPoint x="800" y="440" as="sourcePoint" />
            <mxPoint x="800" y="480" as="targetPoint" />
          </mxGeometry>
        </mxCell>
        <mxCell id="J1uk7EdWoCkrVQCFooa9-87" value="" style="endArrow=none;html=1;rounded=0;strokeColor=#4F6662;strokeWidth=3;" parent="1" edge="1">
          <mxGeometry width="50" height="50" relative="1" as="geometry">
            <mxPoint x="720" y="440" as="sourcePoint" />
            <mxPoint x="800" y="440" as="targetPoint" />
          </mxGeometry>
        </mxCell>
        <mxCell id="J1uk7EdWoCkrVQCFooa9-92" value="" style="endArrow=none;html=1;rounded=0;strokeColor=#4F6662;strokeWidth=3;" parent="1" edge="1">
          <mxGeometry width="50" height="50" relative="1" as="geometry">
            <mxPoint x="719.8" y="440" as="sourcePoint" />
            <mxPoint x="720" y="560" as="targetPoint" />
          </mxGeometry>
        </mxCell>
        <mxCell id="J1uk7EdWoCkrVQCFooa9-93" value="" style="endArrow=none;html=1;rounded=0;strokeColor=#4F6662;strokeWidth=3;" parent="1" edge="1">
          <mxGeometry width="50" height="50" relative="1" as="geometry">
            <mxPoint x="719.5799999999999" y="600" as="sourcePoint" />
            <mxPoint x="720" y="640" as="targetPoint" />
          </mxGeometry>
        </mxCell>
        <mxCell id="J1uk7EdWoCkrVQCFooa9-94" value="" style="endArrow=none;html=1;rounded=0;strokeColor=#4F6662;strokeWidth=3;" parent="1" edge="1">
          <mxGeometry width="50" height="50" relative="1" as="geometry">
            <mxPoint x="720" y="560" as="sourcePoint" />
            <mxPoint x="760" y="560" as="targetPoint" />
          </mxGeometry>
        </mxCell>
        <mxCell id="J1uk7EdWoCkrVQCFooa9-95" value="" style="endArrow=none;html=1;rounded=0;strokeColor=#4F6662;strokeWidth=3;" parent="1" edge="1">
          <mxGeometry width="50" height="50" relative="1" as="geometry">
            <mxPoint x="760" y="520" as="sourcePoint" />
            <mxPoint x="760" y="560" as="targetPoint" />
          </mxGeometry>
        </mxCell>
        <mxCell id="J1uk7EdWoCkrVQCFooa9-96" value="" style="endArrow=none;html=1;rounded=0;strokeColor=#4F6662;strokeWidth=3;" parent="1" edge="1">
          <mxGeometry width="50" height="50" relative="1" as="geometry">
            <mxPoint x="800" y="520" as="sourcePoint" />
            <mxPoint x="800.2" y="640" as="targetPoint" />
          </mxGeometry>
        </mxCell>
        <mxCell id="J1uk7EdWoCkrVQCFooa9-97" value="" style="endArrow=none;html=1;rounded=0;strokeColor=#4F6662;strokeWidth=3;" parent="1" edge="1">
          <mxGeometry width="50" height="50" relative="1" as="geometry">
            <mxPoint x="800" y="520" as="sourcePoint" />
            <mxPoint x="880" y="520" as="targetPoint" />
          </mxGeometry>
        </mxCell>
        <mxCell id="J1uk7EdWoCkrVQCFooa9-98" value="" style="endArrow=none;html=1;rounded=0;strokeColor=#4F6662;strokeWidth=3;" parent="1" edge="1">
          <mxGeometry width="50" height="50" relative="1" as="geometry">
            <mxPoint x="880" y="600" as="sourcePoint" />
            <mxPoint x="880" y="600" as="targetPoint" />
          </mxGeometry>
        </mxCell>
        <mxCell id="J1uk7EdWoCkrVQCFooa9-99" value="" style="endArrow=none;html=1;rounded=0;strokeColor=#4F6662;strokeWidth=3;exitX=0;exitY=1;exitDx=0;exitDy=0;" parent="1" source="isxg0w8kor7gR2DkEYVr-11" edge="1">
          <mxGeometry width="50" height="50" relative="1" as="geometry">
            <mxPoint x="760" y="400" as="sourcePoint" />
            <mxPoint x="800" y="400" as="targetPoint" />
          </mxGeometry>
        </mxCell>
        <mxCell id="J1uk7EdWoCkrVQCFooa9-100" value="" style="endArrow=none;html=1;rounded=0;strokeColor=#4F6662;strokeWidth=3;" parent="1" edge="1">
          <mxGeometry width="50" height="50" relative="1" as="geometry">
            <mxPoint x="800" y="320" as="sourcePoint" />
            <mxPoint x="800" y="400" as="targetPoint" />
          </mxGeometry>
        </mxCell>
        <mxCell id="J1uk7EdWoCkrVQCFooa9-101" value="" style="endArrow=none;html=1;rounded=0;strokeColor=#4F6662;strokeWidth=3;" parent="1" edge="1">
          <mxGeometry width="50" height="50" relative="1" as="geometry">
            <mxPoint x="640" y="360" as="sourcePoint" />
            <mxPoint x="640" y="400" as="targetPoint" />
          </mxGeometry>
        </mxCell>
        <mxCell id="J1uk7EdWoCkrVQCFooa9-102" value="" style="endArrow=none;html=1;rounded=0;strokeColor=#4F6662;strokeWidth=3;" parent="1" edge="1">
          <mxGeometry width="50" height="50" relative="1" as="geometry">
            <mxPoint x="640" y="400" as="sourcePoint" />
            <mxPoint x="640" y="440" as="targetPoint" />
          </mxGeometry>
        </mxCell>
        <mxCell id="J1uk7EdWoCkrVQCFooa9-103" value="" style="endArrow=none;html=1;rounded=0;strokeColor=#4F6662;strokeWidth=3;" parent="1" edge="1">
          <mxGeometry width="50" height="50" relative="1" as="geometry">
            <mxPoint x="640" y="400" as="sourcePoint" />
            <mxPoint x="680" y="400" as="targetPoint" />
          </mxGeometry>
        </mxCell>
        <mxCell id="J1uk7EdWoCkrVQCFooa9-104" value="" style="endArrow=none;html=1;rounded=0;strokeColor=#4F6662;strokeWidth=3;" parent="1" edge="1">
          <mxGeometry width="50" height="50" relative="1" as="geometry">
            <mxPoint x="640" y="440" as="sourcePoint" />
            <mxPoint x="680" y="440" as="targetPoint" />
          </mxGeometry>
        </mxCell>
        <mxCell id="J1uk7EdWoCkrVQCFooa9-105" value="" style="endArrow=none;html=1;rounded=0;entryX=0.375;entryY=-0.001;entryDx=0;entryDy=0;entryPerimeter=0;strokeColor=#4F6662;strokeWidth=3;" parent="1" target="J1uk7EdWoCkrVQCFooa9-3" edge="1">
          <mxGeometry width="50" height="50" relative="1" as="geometry">
            <mxPoint x="680" y="480" as="sourcePoint" />
            <mxPoint x="680.2" y="600" as="targetPoint" />
          </mxGeometry>
        </mxCell>
        <mxCell id="J1uk7EdWoCkrVQCFooa9-106" value="" style="endArrow=none;html=1;rounded=0;strokeColor=#4F6662;strokeWidth=3;" parent="1" edge="1">
          <mxGeometry width="50" height="50" relative="1" as="geometry">
            <mxPoint x="360" y="480" as="sourcePoint" />
            <mxPoint x="360" y="480" as="targetPoint" />
          </mxGeometry>
        </mxCell>
        <mxCell id="J1uk7EdWoCkrVQCFooa9-107" value="" style="endArrow=none;html=1;rounded=0;strokeColor=#4F6662;strokeWidth=3;" parent="1" edge="1">
          <mxGeometry width="50" height="50" relative="1" as="geometry">
            <mxPoint x="520" y="520" as="sourcePoint" />
            <mxPoint x="520.2" y="640" as="targetPoint" />
          </mxGeometry>
        </mxCell>
        <mxCell id="J1uk7EdWoCkrVQCFooa9-108" value="" style="endArrow=none;html=1;rounded=0;strokeColor=#4F6662;strokeWidth=3;" parent="1" edge="1">
          <mxGeometry width="50" height="50" relative="1" as="geometry">
            <mxPoint x="640" y="520" as="sourcePoint" />
            <mxPoint x="520" y="520" as="targetPoint" />
          </mxGeometry>
        </mxCell>
        <mxCell id="J1uk7EdWoCkrVQCFooa9-109" value="" style="endArrow=none;html=1;rounded=0;strokeColor=#4F6662;strokeWidth=3;" parent="1" edge="1">
          <mxGeometry width="50" height="50" relative="1" as="geometry">
            <mxPoint x="640" y="520" as="sourcePoint" />
            <mxPoint x="640" y="600" as="targetPoint" />
          </mxGeometry>
        </mxCell>
        <mxCell id="J1uk7EdWoCkrVQCFooa9-110" value="" style="endArrow=none;html=1;rounded=0;strokeColor=#4F6662;strokeWidth=3;" parent="1" edge="1">
          <mxGeometry width="50" height="50" relative="1" as="geometry">
            <mxPoint x="600" y="440" as="sourcePoint" />
            <mxPoint x="360" y="440" as="targetPoint" />
          </mxGeometry>
        </mxCell>
        <mxCell id="J1uk7EdWoCkrVQCFooa9-111" value="" style="endArrow=none;html=1;rounded=0;strokeColor=#4F6662;strokeWidth=3;" parent="1" edge="1">
          <mxGeometry width="50" height="50" relative="1" as="geometry">
            <mxPoint x="600" y="400" as="sourcePoint" />
            <mxPoint x="400" y="400" as="targetPoint" />
          </mxGeometry>
        </mxCell>
        <mxCell id="J1uk7EdWoCkrVQCFooa9-112" value="" style="endArrow=none;html=1;rounded=0;strokeColor=#4F6662;strokeWidth=3;" parent="1" edge="1">
          <mxGeometry width="50" height="50" relative="1" as="geometry">
            <mxPoint x="560" y="360" as="sourcePoint" />
            <mxPoint x="400" y="360" as="targetPoint" />
          </mxGeometry>
        </mxCell>
        <mxCell id="J1uk7EdWoCkrVQCFooa9-113" value="" style="endArrow=none;html=1;rounded=0;strokeColor=#4F6662;strokeWidth=3;" parent="1" edge="1">
          <mxGeometry width="50" height="50" relative="1" as="geometry">
            <mxPoint x="400" y="360" as="sourcePoint" />
            <mxPoint x="400" y="400" as="targetPoint" />
          </mxGeometry>
        </mxCell>
        <mxCell id="J1uk7EdWoCkrVQCFooa9-114" value="" style="endArrow=none;html=1;rounded=0;strokeColor=#4F6662;strokeWidth=3;" parent="1" edge="1">
          <mxGeometry width="50" height="50" relative="1" as="geometry">
            <mxPoint x="600" y="400" as="sourcePoint" />
            <mxPoint x="600" y="440" as="targetPoint" />
          </mxGeometry>
        </mxCell>
        <mxCell id="J1uk7EdWoCkrVQCFooa9-119" style="edgeStyle=orthogonalEdgeStyle;rounded=0;orthogonalLoop=1;jettySize=auto;html=1;entryX=0.5;entryY=0;entryDx=0;entryDy=0;curved=1;strokeColor=#FFCCCC;" parent="1" source="J1uk7EdWoCkrVQCFooa9-117" target="J1uk7EdWoCkrVQCFooa9-52" edge="1">
          <mxGeometry relative="1" as="geometry">
            <Array as="points">
              <mxPoint x="1219" y="610" />
              <mxPoint x="940" y="610" />
            </Array>
          </mxGeometry>
        </mxCell>
        <mxCell id="J1uk7EdWoCkrVQCFooa9-117" value="Door L1" style="swimlane;fontStyle=1;childLayout=stackLayout;horizontal=1;startSize=40;horizontalStack=0;resizeParent=1;resizeParentMax=0;resizeLast=0;collapsible=1;marginBottom=0;whiteSpace=wrap;html=1;fillColor=#FFCCCC;fontColor=#303030;" parent="1" vertex="1">
          <mxGeometry x="1120" y="640" width="200" height="91" as="geometry" />
        </mxCell>
        <mxCell id="J1uk7EdWoCkrVQCFooa9-118" value="Closed door to the labyrinth;&lt;br&gt;Opens with key S;&lt;br&gt;Moves UP once." style="text;strokeColor=none;fillColor=default;align=left;verticalAlign=middle;spacingLeft=4;spacingRight=4;overflow=hidden;points=[[0,0.5],[1,0.5]];portConstraint=eastwest;rotatable=0;whiteSpace=wrap;html=1;" parent="J1uk7EdWoCkrVQCFooa9-117" vertex="1">
          <mxGeometry y="40" width="200" height="51" as="geometry" />
        </mxCell>
        <mxCell id="J1uk7EdWoCkrVQCFooa9-122" style="edgeStyle=orthogonalEdgeStyle;rounded=0;orthogonalLoop=1;jettySize=auto;html=1;entryX=0.5;entryY=1;entryDx=0;entryDy=0;curved=1;strokeColor=#FFCCCC;exitX=0.895;exitY=-0.002;exitDx=0;exitDy=0;exitPerimeter=0;" parent="1" source="J1uk7EdWoCkrVQCFooa9-120" target="J1uk7EdWoCkrVQCFooa9-53" edge="1">
          <mxGeometry relative="1" as="geometry">
            <Array as="points">
              <mxPoint x="849" y="780" />
              <mxPoint x="920" y="780" />
            </Array>
          </mxGeometry>
        </mxCell>
        <mxCell id="J1uk7EdWoCkrVQCFooa9-120" value="Door L2" style="swimlane;fontStyle=1;childLayout=stackLayout;horizontal=1;startSize=40;horizontalStack=0;resizeParent=1;resizeParentMax=0;resizeLast=0;collapsible=1;marginBottom=0;whiteSpace=wrap;html=1;fillColor=#FFCCCC;fontColor=#303030;" parent="1" vertex="1">
          <mxGeometry x="670" y="855" width="200" height="87" as="geometry" />
        </mxCell>
        <mxCell id="J1uk7EdWoCkrVQCFooa9-121" value="Closed shortcut labyrinth door;&lt;br&gt;Opens when door L1 opens;&lt;br&gt;Moves UP once." style="text;strokeColor=none;fillColor=default;align=left;verticalAlign=middle;spacingLeft=4;spacingRight=4;overflow=hidden;points=[[0,0.5],[1,0.5]];portConstraint=eastwest;rotatable=0;whiteSpace=wrap;html=1;" parent="J1uk7EdWoCkrVQCFooa9-120" vertex="1">
          <mxGeometry y="40" width="200" height="47" as="geometry" />
        </mxCell>
        <mxCell id="J1uk7EdWoCkrVQCFooa9-123" value="" style="endArrow=none;html=1;rounded=0;entryX=1;entryY=0;entryDx=0;entryDy=0;exitX=1;exitY=0;exitDx=0;exitDy=0;strokeWidth=3;strokeColor=#394C66;" parent="1" source="J1uk7EdWoCkrVQCFooa9-4" target="J1uk7EdWoCkrVQCFooa9-6" edge="1">
          <mxGeometry width="50" height="50" relative="1" as="geometry">
            <mxPoint x="775" y="825" as="sourcePoint" />
            <mxPoint x="825" y="775" as="targetPoint" />
          </mxGeometry>
        </mxCell>
        <mxCell id="J1uk7EdWoCkrVQCFooa9-125" value="" style="endArrow=none;html=1;rounded=0;entryX=1;entryY=1;entryDx=0;entryDy=0;exitX=0;exitY=1;exitDx=0;exitDy=0;strokeWidth=3;strokeColor=#394C66;" parent="1" source="J1uk7EdWoCkrVQCFooa9-3" target="J1uk7EdWoCkrVQCFooa9-3" edge="1">
          <mxGeometry width="50" height="50" relative="1" as="geometry">
            <mxPoint x="365" y="805" as="sourcePoint" />
            <mxPoint x="365" y="645" as="targetPoint" />
          </mxGeometry>
        </mxCell>
        <mxCell id="J1uk7EdWoCkrVQCFooa9-20" value="" style="rounded=0;whiteSpace=wrap;html=1;" parent="1" vertex="1">
          <mxGeometry x="700" y="955" width="40" height="10" as="geometry" />
        </mxCell>
        <mxCell id="6FVcj39iq6i3qzFbRGXr-1" value="&lt;font style=&quot;font-size: 11px;&quot;&gt;A.3&lt;/font&gt;" style="whiteSpace=wrap;html=1;aspect=fixed;fillColor=#9AB394;fontColor=#222045;fontStyle=1" parent="1" vertex="1">
          <mxGeometry x="510" y="910" width="20" height="20" as="geometry" />
        </mxCell>
        <mxCell id="6FVcj39iq6i3qzFbRGXr-2" value="&lt;font style=&quot;font-size: 11px;&quot;&gt;A.2&lt;/font&gt;" style="whiteSpace=wrap;html=1;aspect=fixed;fillColor=#FFFF99;fontStyle=1;fontColor=#222045;" parent="1" vertex="1">
          <mxGeometry x="510" y="870" width="20" height="20" as="geometry" />
        </mxCell>
        <mxCell id="6FVcj39iq6i3qzFbRGXr-3" value="&lt;font style=&quot;font-size: 11px;&quot;&gt;A.1&lt;/font&gt;" style="whiteSpace=wrap;html=1;aspect=fixed;fillColor=#7497D4;fontColor=#222045;fontStyle=1" parent="1" vertex="1">
          <mxGeometry x="510" y="830" width="20" height="20" as="geometry" />
        </mxCell>
        <mxCell id="6FVcj39iq6i3qzFbRGXr-9" style="edgeStyle=orthogonalEdgeStyle;rounded=0;orthogonalLoop=1;jettySize=auto;html=1;entryX=0;entryY=0.5;entryDx=0;entryDy=0;curved=1;strokeColor=#66B2FF;exitX=0.915;exitY=0.003;exitDx=0;exitDy=0;exitPerimeter=0;" parent="1" source="6FVcj39iq6i3qzFbRGXr-176" target="6FVcj39iq6i3qzFbRGXr-6" edge="1">
          <mxGeometry relative="1" as="geometry">
            <mxPoint x="245" y="945" as="sourcePoint" />
            <Array as="points">
              <mxPoint x="300" y="880" />
            </Array>
          </mxGeometry>
        </mxCell>
        <mxCell id="6FVcj39iq6i3qzFbRGXr-10" value="&lt;font color=&quot;#1c1c1c&quot;&gt;A.1&lt;/font&gt;" style="ellipse;whiteSpace=wrap;html=1;aspect=fixed;fillColor=#7497D4;fontStyle=1" parent="1" vertex="1">
          <mxGeometry x="530" y="530" width="20" height="20" as="geometry" />
        </mxCell>
        <mxCell id="6FVcj39iq6i3qzFbRGXr-11" value="&lt;font color=&quot;#1c1c1c&quot;&gt;A.2&lt;/font&gt;" style="ellipse;whiteSpace=wrap;html=1;aspect=fixed;fillColor=#FFFF99;fontStyle=1" parent="1" vertex="1">
          <mxGeometry x="1010" y="370" width="20" height="20" as="geometry" />
        </mxCell>
        <mxCell id="6FVcj39iq6i3qzFbRGXr-13" value="&lt;font color=&quot;#1c1c1c&quot;&gt;A.3&lt;/font&gt;" style="ellipse;whiteSpace=wrap;html=1;aspect=fixed;fillColor=#9AB394;fontStyle=1" parent="1" vertex="1">
          <mxGeometry x="570" y="410" width="20" height="20" as="geometry" />
        </mxCell>
        <mxCell id="6FVcj39iq6i3qzFbRGXr-17" value="" style="endArrow=classic;html=1;rounded=0;entryX=0.333;entryY=0;entryDx=0;entryDy=0;entryPerimeter=0;edgeStyle=orthogonalEdgeStyle;curved=1;" parent="1" target="J1uk7EdWoCkrVQCFooa9-13" edge="1">
          <mxGeometry width="50" height="50" relative="1" as="geometry">
            <mxPoint x="560" y="360" as="sourcePoint" />
            <mxPoint x="600" y="325" as="targetPoint" />
            <Array as="points">
              <mxPoint x="560" y="320" />
            </Array>
          </mxGeometry>
        </mxCell>
        <mxCell id="6FVcj39iq6i3qzFbRGXr-21" value="" style="endArrow=none;html=1;rounded=0;strokeColor=#4F6662;strokeWidth=3;" parent="1" edge="1">
          <mxGeometry width="50" height="50" relative="1" as="geometry">
            <mxPoint x="880" y="400" as="sourcePoint" />
            <mxPoint x="1040" y="400" as="targetPoint" />
          </mxGeometry>
        </mxCell>
        <mxCell id="6FVcj39iq6i3qzFbRGXr-22" value="" style="triangle;whiteSpace=wrap;html=1;fillColor=#EA6B66;" parent="1" vertex="1">
          <mxGeometry x="410" y="370" width="20" height="20" as="geometry" />
        </mxCell>
        <mxCell id="6FVcj39iq6i3qzFbRGXr-23" value="Activator" style="swimlane;fontStyle=1;childLayout=stackLayout;horizontal=1;startSize=30;horizontalStack=0;resizeParent=1;resizeParentMax=0;resizeLast=0;collapsible=1;marginBottom=0;whiteSpace=wrap;html=1;fillColor=#EA6B66;fontColor=#303030;" parent="1" vertex="1">
          <mxGeometry x="80" y="270" width="210" height="63" as="geometry" />
        </mxCell>
        <mxCell id="6FVcj39iq6i3qzFbRGXr-24" value="Acitvate tunnel to the A.3 treasure;&lt;br&gt;Move objects and activate." style="text;strokeColor=none;fillColor=default;align=left;verticalAlign=middle;spacingLeft=4;spacingRight=4;overflow=hidden;points=[[0,0.5],[1,0.5]];portConstraint=eastwest;rotatable=0;whiteSpace=wrap;html=1;" parent="6FVcj39iq6i3qzFbRGXr-23" vertex="1">
          <mxGeometry y="30" width="210" height="33" as="geometry" />
        </mxCell>
        <mxCell id="6FVcj39iq6i3qzFbRGXr-25" style="edgeStyle=orthogonalEdgeStyle;rounded=0;orthogonalLoop=1;jettySize=auto;html=1;entryX=0;entryY=0.5;entryDx=0;entryDy=0;curved=1;strokeColor=#FF3333;" parent="1" source="6FVcj39iq6i3qzFbRGXr-24" target="6FVcj39iq6i3qzFbRGXr-22" edge="1">
          <mxGeometry relative="1" as="geometry" />
        </mxCell>
        <mxCell id="6FVcj39iq6i3qzFbRGXr-27" value="&lt;font color=&quot;#1c1c1c&quot;&gt;B.1&lt;/font&gt;" style="ellipse;whiteSpace=wrap;html=1;aspect=fixed;fillColor=#FFD9B8;fontStyle=1" parent="1" vertex="1">
          <mxGeometry x="930" y="570" width="20" height="20" as="geometry" />
        </mxCell>
        <mxCell id="6FVcj39iq6i3qzFbRGXr-28" value="&lt;font style=&quot;font-size: 11px;&quot;&gt;B.3&lt;/font&gt;" style="whiteSpace=wrap;html=1;aspect=fixed;fillColor=#7ED3D9;fontColor=#222045;" parent="1" vertex="1">
          <mxGeometry x="910" y="910" width="20" height="20" as="geometry" />
        </mxCell>
        <mxCell id="6FVcj39iq6i3qzFbRGXr-29" value="&lt;font style=&quot;font-size: 11px;&quot;&gt;B.2&lt;/font&gt;" style="whiteSpace=wrap;html=1;aspect=fixed;fillColor=#E19FE3;fontStyle=1;fontColor=#222045;" parent="1" vertex="1">
          <mxGeometry x="910" y="870" width="20" height="20" as="geometry" />
        </mxCell>
        <mxCell id="6FVcj39iq6i3qzFbRGXr-30" value="&lt;font color=&quot;#222045&quot; style=&quot;font-size: 11px;&quot;&gt;&lt;b&gt;B.1&lt;/b&gt;&lt;/font&gt;" style="whiteSpace=wrap;html=1;aspect=fixed;fillColor=#FFD9B8;" parent="1" vertex="1">
          <mxGeometry x="910" y="830" width="20" height="20" as="geometry" />
        </mxCell>
        <mxCell id="6FVcj39iq6i3qzFbRGXr-120" style="edgeStyle=orthogonalEdgeStyle;rounded=0;orthogonalLoop=1;jettySize=auto;html=1;entryX=1;entryY=0.5;entryDx=0;entryDy=0;curved=1;strokeColor=#66B2FF;" parent="1" source="6FVcj39iq6i3qzFbRGXr-32" target="6FVcj39iq6i3qzFbRGXr-31" edge="1">
          <mxGeometry relative="1" as="geometry" />
        </mxCell>
        <mxCell id="6FVcj39iq6i3qzFbRGXr-32" value="Locker B" style="swimlane;fontStyle=1;childLayout=stackLayout;horizontal=1;startSize=30;horizontalStack=0;resizeParent=1;resizeParentMax=0;resizeLast=0;collapsible=1;marginBottom=0;whiteSpace=wrap;html=1;fillColor=#66B2FF;fontColor=#303030;" parent="1" vertex="1">
          <mxGeometry x="1120" y="920" width="240" height="65" as="geometry" />
        </mxCell>
        <mxCell id="6FVcj39iq6i3qzFbRGXr-33" value="Stands posts for treasures;&lt;br&gt;Lights ON when no accepted Object there." style="text;strokeColor=none;fillColor=default;align=left;verticalAlign=middle;spacingLeft=4;spacingRight=4;overflow=hidden;points=[[0,0.5],[1,0.5]];portConstraint=eastwest;rotatable=0;whiteSpace=wrap;html=1;" parent="6FVcj39iq6i3qzFbRGXr-32" vertex="1">
          <mxGeometry y="30" width="240" height="35" as="geometry" />
        </mxCell>
        <mxCell id="6FVcj39iq6i3qzFbRGXr-34" value="&lt;font color=&quot;#1c1c1c&quot;&gt;B.2&lt;/font&gt;" style="ellipse;whiteSpace=wrap;html=1;aspect=fixed;fillColor=#E19FE3;fontStyle=1" parent="1" vertex="1">
          <mxGeometry x="570" y="330" width="20" height="20" as="geometry" />
        </mxCell>
        <mxCell id="6FVcj39iq6i3qzFbRGXr-39" value="&lt;font color=&quot;#1c1c1c&quot;&gt;B.3&lt;/font&gt;" style="ellipse;whiteSpace=wrap;html=1;aspect=fixed;fillColor=#7ED3D9;fontStyle=1" parent="1" vertex="1">
          <mxGeometry x="850" y="530" width="20" height="20" as="geometry" />
        </mxCell>
        <mxCell id="6FVcj39iq6i3qzFbRGXr-40" value="&lt;font color=&quot;#1c1c1c&quot;&gt;D.3&lt;/font&gt;" style="ellipse;whiteSpace=wrap;html=1;aspect=fixed;fillColor=#B9E0A5;fontStyle=1" parent="1" vertex="1">
          <mxGeometry x="810" y="610" width="20" height="20" as="geometry" />
        </mxCell>
        <mxCell id="6FVcj39iq6i3qzFbRGXr-103" style="edgeStyle=orthogonalEdgeStyle;rounded=0;orthogonalLoop=1;jettySize=auto;html=1;dashed=1;dashPattern=12 12;strokeColor=#3333FF;entryX=0.1;entryY=0.987;entryDx=0;entryDy=0;entryPerimeter=0;" parent="1" source="6FVcj39iq6i3qzFbRGXr-41" target="6FVcj39iq6i3qzFbRGXr-72" edge="1">
          <mxGeometry relative="1" as="geometry">
            <mxPoint x="780" y="395" as="targetPoint" />
            <Array as="points">
              <mxPoint x="768" y="580" />
            </Array>
          </mxGeometry>
        </mxCell>
        <mxCell id="6FVcj39iq6i3qzFbRGXr-41" value="&lt;font color=&quot;#1c1c1c&quot;&gt;D.2&lt;/font&gt;" style="ellipse;whiteSpace=wrap;html=1;aspect=fixed;fillColor=#B9E0A5;fontStyle=1" parent="1" vertex="1">
          <mxGeometry x="810" y="570" width="20" height="20" as="geometry" />
        </mxCell>
        <mxCell id="6FVcj39iq6i3qzFbRGXr-42" value="&lt;font color=&quot;#1c1c1c&quot;&gt;D.1&lt;/font&gt;" style="ellipse;whiteSpace=wrap;html=1;aspect=fixed;fillColor=#B9E0A5;fontStyle=1" parent="1" vertex="1">
          <mxGeometry x="810" y="530" width="20" height="20" as="geometry" />
        </mxCell>
        <mxCell id="6FVcj39iq6i3qzFbRGXr-47" style="edgeStyle=orthogonalEdgeStyle;rounded=0;orthogonalLoop=1;jettySize=auto;html=1;strokeColor=#B9E0A5;curved=1;" parent="1" source="6FVcj39iq6i3qzFbRGXr-45" target="6FVcj39iq6i3qzFbRGXr-42" edge="1">
          <mxGeometry relative="1" as="geometry" />
        </mxCell>
        <mxCell id="6FVcj39iq6i3qzFbRGXr-45" value="Dummy D.1" style="swimlane;fontStyle=1;childLayout=stackLayout;horizontal=1;startSize=30;horizontalStack=0;resizeParent=1;resizeParentMax=0;resizeLast=0;collapsible=1;marginBottom=0;whiteSpace=wrap;html=1;fillColor=#B9E0A5;fontColor=#303030;" parent="1" vertex="1">
          <mxGeometry x="1120" y="320" width="120" height="60" as="geometry" />
        </mxCell>
        <mxCell id="6FVcj39iq6i3qzFbRGXr-46" value="m = 20kg" style="text;strokeColor=none;fillColor=default;align=left;verticalAlign=middle;spacingLeft=4;spacingRight=4;overflow=hidden;points=[[0,0.5],[1,0.5]];portConstraint=eastwest;rotatable=0;whiteSpace=wrap;html=1;" parent="6FVcj39iq6i3qzFbRGXr-45" vertex="1">
          <mxGeometry y="30" width="120" height="30" as="geometry" />
        </mxCell>
        <mxCell id="6FVcj39iq6i3qzFbRGXr-50" value="" style="endArrow=none;html=1;rounded=0;strokeColor=#4F6662;strokeWidth=3;" parent="1" edge="1">
          <mxGeometry width="50" height="50" relative="1" as="geometry">
            <mxPoint x="880" y="520" as="sourcePoint" />
            <mxPoint x="880" y="600" as="targetPoint" />
          </mxGeometry>
        </mxCell>
        <mxCell id="6FVcj39iq6i3qzFbRGXr-184" style="edgeStyle=orthogonalEdgeStyle;rounded=0;orthogonalLoop=1;jettySize=auto;html=1;curved=1;exitX=0;exitY=0;exitDx=0;exitDy=0;strokeColor=#FFCCCC;entryX=0.971;entryY=0.868;entryDx=0;entryDy=0;entryPerimeter=0;" parent="1" source="6FVcj39iq6i3qzFbRGXr-52" target="6FVcj39iq6i3qzFbRGXr-149" edge="1">
          <mxGeometry relative="1" as="geometry">
            <mxPoint x="885" y="595" as="targetPoint" />
            <Array as="points">
              <mxPoint x="1375" y="595" />
            </Array>
          </mxGeometry>
        </mxCell>
        <mxCell id="6FVcj39iq6i3qzFbRGXr-52" value="Door LockB3" style="swimlane;fontStyle=1;childLayout=stackLayout;horizontal=1;startSize=40;horizontalStack=0;resizeParent=1;resizeParentMax=0;resizeLast=0;collapsible=1;marginBottom=0;whiteSpace=wrap;html=1;fillColor=#FFCCCC;fontColor=#303030;" parent="1" vertex="1">
          <mxGeometry x="1375" y="640" width="220" height="90" as="geometry" />
        </mxCell>
        <mxCell id="6FVcj39iq6i3qzFbRGXr-53" value="Gate door: need to see outside;&lt;br&gt;Initial state: open;&lt;br&gt;Closes/opens when TriggerB3 say so." style="text;strokeColor=none;fillColor=default;align=left;verticalAlign=middle;spacingLeft=4;spacingRight=4;overflow=hidden;points=[[0,0.5],[1,0.5]];portConstraint=eastwest;rotatable=0;whiteSpace=wrap;html=1;" parent="6FVcj39iq6i3qzFbRGXr-52" vertex="1">
          <mxGeometry y="40" width="220" height="50" as="geometry" />
        </mxCell>
        <mxCell id="6FVcj39iq6i3qzFbRGXr-183" style="edgeStyle=orthogonalEdgeStyle;rounded=0;orthogonalLoop=1;jettySize=auto;html=1;entryX=1;entryY=0.5;entryDx=0;entryDy=0;curved=1;strokeColor=#B9E0A5;" parent="1" source="6FVcj39iq6i3qzFbRGXr-54" target="6FVcj39iq6i3qzFbRGXr-41" edge="1">
          <mxGeometry relative="1" as="geometry">
            <Array as="points">
              <mxPoint x="910" y="550" />
              <mxPoint x="910" y="580" />
            </Array>
          </mxGeometry>
        </mxCell>
        <mxCell id="6FVcj39iq6i3qzFbRGXr-54" value="Dummy D.2" style="swimlane;fontStyle=1;childLayout=stackLayout;horizontal=1;startSize=30;horizontalStack=0;resizeParent=1;resizeParentMax=0;resizeLast=0;collapsible=1;marginBottom=0;whiteSpace=wrap;html=1;fillColor=#B9E0A5;fontColor=#303030;" parent="1" vertex="1">
          <mxGeometry x="1120" y="520" width="120" height="60" as="geometry" />
        </mxCell>
        <mxCell id="6FVcj39iq6i3qzFbRGXr-55" value="m = 40kg" style="text;strokeColor=none;fillColor=default;align=left;verticalAlign=middle;spacingLeft=4;spacingRight=4;overflow=hidden;points=[[0,0.5],[1,0.5]];portConstraint=eastwest;rotatable=0;whiteSpace=wrap;html=1;" parent="6FVcj39iq6i3qzFbRGXr-54" vertex="1">
          <mxGeometry y="30" width="120" height="30" as="geometry" />
        </mxCell>
        <mxCell id="6FVcj39iq6i3qzFbRGXr-61" style="edgeStyle=orthogonalEdgeStyle;rounded=0;orthogonalLoop=1;jettySize=auto;html=1;entryX=0;entryY=0.5;entryDx=0;entryDy=0;curved=1;strokeColor=#B9E0A5;" parent="1" source="6FVcj39iq6i3qzFbRGXr-58" target="6FVcj39iq6i3qzFbRGXr-40" edge="1">
          <mxGeometry relative="1" as="geometry">
            <Array as="points">
              <mxPoint x="630" y="620" />
            </Array>
          </mxGeometry>
        </mxCell>
        <mxCell id="6FVcj39iq6i3qzFbRGXr-58" value="Dummy D.3" style="swimlane;fontStyle=1;childLayout=stackLayout;horizontal=1;startSize=30;horizontalStack=0;resizeParent=1;resizeParentMax=0;resizeLast=0;collapsible=1;marginBottom=0;whiteSpace=wrap;html=1;fillColor=#B9E0A5;fontColor=#303030;" parent="1" vertex="1">
          <mxGeometry x="570" y="650" width="120" height="60" as="geometry" />
        </mxCell>
        <mxCell id="6FVcj39iq6i3qzFbRGXr-59" value="m = 10kg" style="text;strokeColor=none;fillColor=default;align=left;verticalAlign=middle;spacingLeft=4;spacingRight=4;overflow=hidden;points=[[0,0.5],[1,0.5]];portConstraint=eastwest;rotatable=0;whiteSpace=wrap;html=1;" parent="6FVcj39iq6i3qzFbRGXr-58" vertex="1">
          <mxGeometry y="30" width="120" height="30" as="geometry" />
        </mxCell>
        <mxCell id="6FVcj39iq6i3qzFbRGXr-63" value="" style="edgeStyle=orthogonalEdgeStyle;rounded=0;orthogonalLoop=1;jettySize=auto;html=1;exitX=1;exitY=0.5;exitDx=0;exitDy=0;" parent="1" source="6FVcj39iq6i3qzFbRGXr-34" edge="1">
          <mxGeometry relative="1" as="geometry">
            <mxPoint x="620" y="340" as="targetPoint" />
            <mxPoint x="590" y="340" as="sourcePoint" />
          </mxGeometry>
        </mxCell>
        <mxCell id="isxg0w8kor7gR2DkEYVr-16" style="edgeStyle=orthogonalEdgeStyle;rounded=0;orthogonalLoop=1;jettySize=auto;html=1;dashed=1;dashPattern=12 12;strokeColor=#3333FF;" parent="1" source="6FVcj39iq6i3qzFbRGXr-66" edge="1">
          <mxGeometry relative="1" as="geometry">
            <mxPoint x="860" y="525" as="targetPoint" />
            <Array as="points">
              <mxPoint x="780" y="340" />
              <mxPoint x="860" y="340" />
            </Array>
          </mxGeometry>
        </mxCell>
        <mxCell id="6FVcj39iq6i3qzFbRGXr-66" value="&lt;font color=&quot;#1c1c1c&quot;&gt;D.4&lt;/font&gt;" style="ellipse;whiteSpace=wrap;html=1;aspect=fixed;fillColor=#B9E0A5;fontStyle=1" parent="1" vertex="1">
          <mxGeometry x="770" y="370" width="20" height="20" as="geometry" />
        </mxCell>
        <mxCell id="6FVcj39iq6i3qzFbRGXr-69" style="edgeStyle=orthogonalEdgeStyle;rounded=0;orthogonalLoop=1;jettySize=auto;html=1;curved=1;strokeColor=#B9E0A5;" parent="1" source="6FVcj39iq6i3qzFbRGXr-67" target="6FVcj39iq6i3qzFbRGXr-66" edge="1">
          <mxGeometry relative="1" as="geometry">
            <Array as="points">
              <mxPoint x="875" y="275" />
              <mxPoint x="875" y="380" />
            </Array>
          </mxGeometry>
        </mxCell>
        <mxCell id="6FVcj39iq6i3qzFbRGXr-67" value="Dummy D.4" style="swimlane;fontStyle=1;childLayout=stackLayout;horizontal=1;startSize=30;horizontalStack=0;resizeParent=1;resizeParentMax=0;resizeLast=0;collapsible=1;marginBottom=0;whiteSpace=wrap;html=1;fillColor=#B9E0A5;fontColor=#303030;" parent="1" vertex="1">
          <mxGeometry x="1120" y="245" width="120" height="60" as="geometry" />
        </mxCell>
        <mxCell id="6FVcj39iq6i3qzFbRGXr-68" value="m = 50kg" style="text;strokeColor=none;fillColor=default;align=left;verticalAlign=middle;spacingLeft=4;spacingRight=4;overflow=hidden;points=[[0,0.5],[1,0.5]];portConstraint=eastwest;rotatable=0;whiteSpace=wrap;html=1;" parent="6FVcj39iq6i3qzFbRGXr-67" vertex="1">
          <mxGeometry y="30" width="120" height="30" as="geometry" />
        </mxCell>
        <mxCell id="6FVcj39iq6i3qzFbRGXr-70" value="" style="endArrow=none;html=1;rounded=0;strokeColor=#4F6662;strokeWidth=3;" parent="1" edge="1">
          <mxGeometry width="50" height="50" relative="1" as="geometry">
            <mxPoint x="679.8299999999999" y="400" as="sourcePoint" />
            <mxPoint x="679.83" y="400" as="targetPoint" />
          </mxGeometry>
        </mxCell>
        <mxCell id="6FVcj39iq6i3qzFbRGXr-75" style="edgeStyle=orthogonalEdgeStyle;rounded=0;orthogonalLoop=1;jettySize=auto;html=1;entryX=1;entryY=0.75;entryDx=0;entryDy=0;curved=1;strokeColor=#FFCCCC;" parent="1" source="6FVcj39iq6i3qzFbRGXr-73" target="isxg0w8kor7gR2DkEYVr-13" edge="1">
          <mxGeometry relative="1" as="geometry">
            <mxPoint x="645" y="340" as="targetPoint" />
            <Array as="points">
              <mxPoint x="690" y="75" />
              <mxPoint x="690" y="349" />
              <mxPoint x="650" y="349" />
            </Array>
          </mxGeometry>
        </mxCell>
        <mxCell id="6FVcj39iq6i3qzFbRGXr-73" value="Door LockD2" style="swimlane;fontStyle=1;childLayout=stackLayout;horizontal=1;startSize=40;horizontalStack=0;resizeParent=1;resizeParentMax=0;resizeLast=0;collapsible=1;marginBottom=0;whiteSpace=wrap;html=1;fillColor=#FFCCCC;fontColor=#303030;" parent="1" vertex="1">
          <mxGeometry x="400" y="30" width="200" height="90" as="geometry" />
        </mxCell>
        <mxCell id="6FVcj39iq6i3qzFbRGXr-74" value="Gate door: need to see outside;&lt;br&gt;Initial state: closed;&lt;br&gt;Closes/opens by TriggerD2 signal." style="text;strokeColor=none;fillColor=default;align=left;verticalAlign=middle;spacingLeft=4;spacingRight=4;overflow=hidden;points=[[0,0.5],[1,0.5]];portConstraint=eastwest;rotatable=0;whiteSpace=wrap;html=1;" parent="6FVcj39iq6i3qzFbRGXr-73" vertex="1">
          <mxGeometry y="40" width="200" height="50" as="geometry" />
        </mxCell>
        <mxCell id="6FVcj39iq6i3qzFbRGXr-81" style="edgeStyle=orthogonalEdgeStyle;rounded=0;orthogonalLoop=1;jettySize=auto;html=1;entryX=1;entryY=0.5;entryDx=0;entryDy=0;curved=1;strokeColor=#FF66FF;exitX=0.001;exitY=0.006;exitDx=0;exitDy=0;exitPerimeter=0;" parent="1" source="6FVcj39iq6i3qzFbRGXr-78" target="6FVcj39iq6i3qzFbRGXr-48" edge="1">
          <mxGeometry relative="1" as="geometry">
            <Array as="points">
              <mxPoint x="1005" y="440" />
              <mxPoint x="1005" y="540" />
            </Array>
          </mxGeometry>
        </mxCell>
        <mxCell id="6FVcj39iq6i3qzFbRGXr-77" value="MassTrigger B3" style="swimlane;fontStyle=1;childLayout=stackLayout;horizontal=1;startSize=30;horizontalStack=0;resizeParent=1;resizeParentMax=0;resizeLast=0;collapsible=1;marginBottom=0;whiteSpace=wrap;html=1;fillColor=#FF66FF;fontColor=#303030;" parent="1" vertex="1">
          <mxGeometry x="1120" y="410" width="235" height="90" as="geometry" />
        </mxCell>
        <mxCell id="6FVcj39iq6i3qzFbRGXr-78" value="Signalize when Object removed/placed;&lt;br&gt;Accepts objects from 45 kg and more;&lt;br&gt;&lt;b&gt;&lt;font color=&quot;#ff3333&quot;&gt;Place D.4 as a replacement.&lt;/font&gt;&lt;/b&gt;" style="text;strokeColor=none;fillColor=default;align=left;verticalAlign=middle;spacingLeft=4;spacingRight=4;overflow=hidden;points=[[0,0.5],[1,0.5]];portConstraint=eastwest;rotatable=0;whiteSpace=wrap;html=1;" parent="6FVcj39iq6i3qzFbRGXr-77" vertex="1">
          <mxGeometry y="30" width="235" height="60" as="geometry" />
        </mxCell>
        <mxCell id="6FVcj39iq6i3qzFbRGXr-85" style="edgeStyle=orthogonalEdgeStyle;rounded=0;orthogonalLoop=1;jettySize=auto;html=1;curved=1;strokeColor=#7ED3D9;" parent="1" source="6FVcj39iq6i3qzFbRGXr-79" target="6FVcj39iq6i3qzFbRGXr-39" edge="1">
          <mxGeometry relative="1" as="geometry" />
        </mxCell>
        <mxCell id="6FVcj39iq6i3qzFbRGXr-79" value="Treasure B.3" style="swimlane;fontStyle=1;childLayout=stackLayout;horizontal=1;startSize=30;horizontalStack=0;resizeParent=1;resizeParentMax=0;resizeLast=0;collapsible=1;marginBottom=0;whiteSpace=wrap;html=1;fillColor=#7ED3D9;fontColor=#303030;" parent="1" vertex="1">
          <mxGeometry x="715" y="650" width="120" height="60" as="geometry" />
        </mxCell>
        <mxCell id="6FVcj39iq6i3qzFbRGXr-80" value="m = 55 kg" style="text;strokeColor=none;fillColor=default;align=left;verticalAlign=middle;spacingLeft=4;spacingRight=4;overflow=hidden;points=[[0,0.5],[1,0.5]];portConstraint=eastwest;rotatable=0;whiteSpace=wrap;html=1;" parent="6FVcj39iq6i3qzFbRGXr-79" vertex="1">
          <mxGeometry y="30" width="120" height="30" as="geometry" />
        </mxCell>
        <mxCell id="6FVcj39iq6i3qzFbRGXr-82" value="TagTrigger D2" style="swimlane;fontStyle=1;childLayout=stackLayout;horizontal=1;startSize=30;horizontalStack=0;resizeParent=1;resizeParentMax=0;resizeLast=0;collapsible=1;marginBottom=0;whiteSpace=wrap;html=1;fillColor=#FF66FF;fontColor=#303030;" parent="1" vertex="1">
          <mxGeometry x="1270" y="230" width="260" height="100" as="geometry" />
        </mxCell>
        <mxCell id="6FVcj39iq6i3qzFbRGXr-83" value="Signalize when Object removed/placed;&lt;br&gt;Connected to two Movers:&lt;br&gt;- Mover LockD2 - signal by mass &amp;gt;=35kg;&lt;br&gt;- Mover LockCage - signal by Tag DummyD2." style="text;strokeColor=none;fillColor=default;align=left;verticalAlign=middle;spacingLeft=4;spacingRight=4;overflow=hidden;points=[[0,0.5],[1,0.5]];portConstraint=eastwest;rotatable=0;whiteSpace=wrap;html=1;" parent="6FVcj39iq6i3qzFbRGXr-82" vertex="1">
          <mxGeometry y="30" width="260" height="70" as="geometry" />
        </mxCell>
        <mxCell id="6FVcj39iq6i3qzFbRGXr-84" style="edgeStyle=orthogonalEdgeStyle;rounded=0;orthogonalLoop=1;jettySize=auto;html=1;entryX=1;entryY=0.25;entryDx=0;entryDy=0;curved=1;strokeColor=#FF66FF;exitX=0.5;exitY=0;exitDx=0;exitDy=0;" parent="1" source="6FVcj39iq6i3qzFbRGXr-82" target="6FVcj39iq6i3qzFbRGXr-72" edge="1">
          <mxGeometry relative="1" as="geometry">
            <Array as="points">
              <mxPoint x="1400" y="210" />
              <mxPoint x="870" y="210" />
              <mxPoint x="870" y="332" />
            </Array>
          </mxGeometry>
        </mxCell>
        <mxCell id="6FVcj39iq6i3qzFbRGXr-87" value="" style="endArrow=none;html=1;rounded=0;strokeColor=#4F6662;strokeWidth=3;" parent="1" edge="1">
          <mxGeometry width="50" height="50" relative="1" as="geometry">
            <mxPoint x="680" y="480" as="sourcePoint" />
            <mxPoint x="400" y="480" as="targetPoint" />
          </mxGeometry>
        </mxCell>
        <mxCell id="6FVcj39iq6i3qzFbRGXr-91" value="" style="endArrow=none;html=1;rounded=0;strokeColor=#4F6662;strokeWidth=3;" parent="1" edge="1">
          <mxGeometry width="50" height="50" relative="1" as="geometry">
            <mxPoint x="679.83" y="360" as="sourcePoint" />
            <mxPoint x="679.8299999999999" y="360" as="targetPoint" />
          </mxGeometry>
        </mxCell>
        <mxCell id="6FVcj39iq6i3qzFbRGXr-95" value="" style="rounded=0;whiteSpace=wrap;html=1;fillColor=none;strokeWidth=3;dashed=1;dashPattern=1 2;strokeColor=#FF66FF;" parent="1" vertex="1">
          <mxGeometry x="420" y="450" width="30" height="30" as="geometry" />
        </mxCell>
        <mxCell id="6FVcj39iq6i3qzFbRGXr-97" value="" style="rounded=0;whiteSpace=wrap;html=1;fillColor=none;strokeWidth=3;dashed=1;dashPattern=1 2;strokeColor=#FF66FF;" parent="1" vertex="1">
          <mxGeometry x="930" y="645" width="20" height="20" as="geometry" />
        </mxCell>
        <mxCell id="6FVcj39iq6i3qzFbRGXr-107" style="edgeStyle=orthogonalEdgeStyle;rounded=0;orthogonalLoop=1;jettySize=auto;html=1;entryX=1;entryY=0.5;entryDx=0;entryDy=0;curved=1;strokeColor=#FF66FF;" parent="1" source="6FVcj39iq6i3qzFbRGXr-101" target="6FVcj39iq6i3qzFbRGXr-97" edge="1">
          <mxGeometry relative="1" as="geometry">
            <Array as="points">
              <mxPoint x="980" y="795" />
              <mxPoint x="980" y="655" />
            </Array>
          </mxGeometry>
        </mxCell>
        <mxCell id="6FVcj39iq6i3qzFbRGXr-101" value="TagTrigger S" style="swimlane;fontStyle=1;childLayout=stackLayout;horizontal=1;startSize=30;horizontalStack=0;resizeParent=1;resizeParentMax=0;resizeLast=0;collapsible=1;marginBottom=0;whiteSpace=wrap;html=1;fillColor=#FF66FF;fontColor=#303030;" parent="1" vertex="1">
          <mxGeometry x="1120" y="755" width="245" height="75" as="geometry" />
        </mxCell>
        <mxCell id="6FVcj39iq6i3qzFbRGXr-102" value="Signalize when Key S placed/removed;&lt;br&gt;Accepts objects with tag:&quot;UnlockLabyrinth&quot;" style="text;strokeColor=none;fillColor=default;align=left;verticalAlign=middle;spacingLeft=4;spacingRight=4;overflow=hidden;points=[[0,0.5],[1,0.5]];portConstraint=eastwest;rotatable=0;whiteSpace=wrap;html=1;" parent="6FVcj39iq6i3qzFbRGXr-101" vertex="1">
          <mxGeometry y="30" width="245" height="45" as="geometry" />
        </mxCell>
        <mxCell id="6FVcj39iq6i3qzFbRGXr-114" style="edgeStyle=orthogonalEdgeStyle;rounded=0;orthogonalLoop=1;jettySize=auto;html=1;entryX=1;entryY=0.5;entryDx=0;entryDy=0;dashed=1;dashPattern=12 12;strokeColor=#3333FF;" parent="1" source="6FVcj39iq6i3qzFbRGXr-109" target="6FVcj39iq6i3qzFbRGXr-95" edge="1">
          <mxGeometry relative="1" as="geometry">
            <Array as="points">
              <mxPoint x="740" y="465" />
            </Array>
          </mxGeometry>
        </mxCell>
        <mxCell id="6FVcj39iq6i3qzFbRGXr-109" value="&lt;b&gt;&lt;font color=&quot;#292929&quot; style=&quot;font-size: 13px;&quot;&gt;T&lt;/font&gt;&lt;/b&gt;" style="ellipse;whiteSpace=wrap;html=1;aspect=fixed;fillColor=#33FF99;" parent="1" vertex="1">
          <mxGeometry x="730" y="530" width="20" height="20" as="geometry" />
        </mxCell>
        <mxCell id="6FVcj39iq6i3qzFbRGXr-113" style="edgeStyle=orthogonalEdgeStyle;rounded=0;orthogonalLoop=1;jettySize=auto;html=1;curved=1;strokeColor=#D5E8D4;exitX=1;exitY=0.5;exitDx=0;exitDy=0;" parent="1" source="6FVcj39iq6i3qzFbRGXr-112" edge="1">
          <mxGeometry relative="1" as="geometry">
            <mxPoint x="740" y="550" as="targetPoint" />
            <Array as="points">
              <mxPoint x="740" y="590" />
            </Array>
          </mxGeometry>
        </mxCell>
        <mxCell id="6FVcj39iq6i3qzFbRGXr-111" value="Key T" style="swimlane;fontStyle=1;childLayout=stackLayout;horizontal=1;startSize=30;horizontalStack=0;resizeParent=1;resizeParentMax=0;resizeLast=0;collapsible=1;marginBottom=0;whiteSpace=wrap;html=1;fillColor=#D5E8D4;fontColor=#303030;" parent="1" vertex="1">
          <mxGeometry x="80" y="545" width="220" height="60" as="geometry" />
        </mxCell>
        <mxCell id="6FVcj39iq6i3qzFbRGXr-112" value="Key to the shortcut South East corner" style="text;strokeColor=none;fillColor=default;align=left;verticalAlign=middle;spacingLeft=4;spacingRight=4;overflow=hidden;points=[[0,0.5],[1,0.5]];portConstraint=eastwest;rotatable=0;whiteSpace=wrap;html=1;" parent="6FVcj39iq6i3qzFbRGXr-111" vertex="1">
          <mxGeometry y="30" width="220" height="30" as="geometry" />
        </mxCell>
        <mxCell id="6FVcj39iq6i3qzFbRGXr-117" style="edgeStyle=orthogonalEdgeStyle;rounded=0;orthogonalLoop=1;jettySize=auto;html=1;curved=1;strokeColor=#FF66FF;exitX=1;exitY=0.75;exitDx=0;exitDy=0;" parent="1" source="6FVcj39iq6i3qzFbRGXr-118" target="6FVcj39iq6i3qzFbRGXr-95" edge="1">
          <mxGeometry relative="1" as="geometry">
            <mxPoint x="325" y="440" as="sourcePoint" />
          </mxGeometry>
        </mxCell>
        <mxCell id="6FVcj39iq6i3qzFbRGXr-118" value="TagTriggerT" style="swimlane;fontStyle=1;childLayout=stackLayout;horizontal=1;startSize=30;horizontalStack=0;resizeParent=1;resizeParentMax=0;resizeLast=0;collapsible=1;marginBottom=0;whiteSpace=wrap;html=1;fillColor=#FF66FF;fontColor=#303030;" parent="1" vertex="1">
          <mxGeometry x="80" y="340" width="245" height="85" as="geometry" />
        </mxCell>
        <mxCell id="6FVcj39iq6i3qzFbRGXr-119" value="Signalize when Key T placed;&lt;br&gt;Accepts objects with tag:&quot;UnlockCorner;&lt;br&gt;Activates only once." style="text;strokeColor=none;fillColor=default;align=left;verticalAlign=middle;spacingLeft=4;spacingRight=4;overflow=hidden;points=[[0,0.5],[1,0.5]];portConstraint=eastwest;rotatable=0;whiteSpace=wrap;html=1;" parent="6FVcj39iq6i3qzFbRGXr-118" vertex="1">
          <mxGeometry y="30" width="245" height="55" as="geometry" />
        </mxCell>
        <mxCell id="6FVcj39iq6i3qzFbRGXr-132" style="edgeStyle=orthogonalEdgeStyle;rounded=0;orthogonalLoop=1;jettySize=auto;html=1;entryX=0;entryY=0.5;entryDx=0;entryDy=0;curved=1;strokeColor=#FF66FF;" parent="1" target="6FVcj39iq6i3qzFbRGXr-121" edge="1">
          <mxGeometry relative="1" as="geometry">
            <mxPoint x="290" y="230" as="sourcePoint" />
          </mxGeometry>
        </mxCell>
        <mxCell id="6FVcj39iq6i3qzFbRGXr-133" value="" style="rounded=0;whiteSpace=wrap;html=1;fillColor=none;strokeWidth=1;strokeColor=#9933FF;" parent="1" vertex="1">
          <mxGeometry x="1425" y="405" width="40" height="10" as="geometry" />
        </mxCell>
        <mxCell id="6FVcj39iq6i3qzFbRGXr-136" style="edgeStyle=orthogonalEdgeStyle;rounded=0;orthogonalLoop=1;jettySize=auto;html=1;entryX=1;entryY=0.5;entryDx=0;entryDy=0;" parent="1" source="6FVcj39iq6i3qzFbRGXr-134" edge="1">
          <mxGeometry relative="1" as="geometry">
            <mxPoint x="1465" y="410" as="targetPoint" />
          </mxGeometry>
        </mxCell>
        <mxCell id="6FVcj39iq6i3qzFbRGXr-134" value="Movers" style="swimlane;fontStyle=1;childLayout=stackLayout;horizontal=1;startSize=30;horizontalStack=0;resizeParent=1;resizeParentMax=0;resizeLast=0;collapsible=1;marginBottom=0;whiteSpace=wrap;html=1;fillColor=#9933FF;fontColor=#303030;" parent="1" vertex="1">
          <mxGeometry x="1525" y="380" width="120" height="60" as="geometry">
            <mxRectangle x="1045" y="595" width="80" height="30" as="alternateBounds" />
          </mxGeometry>
        </mxCell>
        <mxCell id="6FVcj39iq6i3qzFbRGXr-135" value="Move door" style="text;strokeColor=none;fillColor=default;align=left;verticalAlign=middle;spacingLeft=4;spacingRight=4;overflow=hidden;points=[[0,0.5],[1,0.5]];portConstraint=eastwest;rotatable=0;whiteSpace=wrap;html=1;" parent="6FVcj39iq6i3qzFbRGXr-134" vertex="1">
          <mxGeometry y="30" width="120" height="30" as="geometry" />
        </mxCell>
        <mxCell id="6FVcj39iq6i3qzFbRGXr-142" style="edgeStyle=orthogonalEdgeStyle;rounded=0;orthogonalLoop=1;jettySize=auto;html=1;" parent="1" source="6FVcj39iq6i3qzFbRGXr-140" edge="1">
          <mxGeometry relative="1" as="geometry">
            <mxPoint x="1465" y="490" as="targetPoint" />
          </mxGeometry>
        </mxCell>
        <mxCell id="6FVcj39iq6i3qzFbRGXr-140" value="Rotators" style="swimlane;fontStyle=1;childLayout=stackLayout;horizontal=1;startSize=30;horizontalStack=0;resizeParent=1;resizeParentMax=0;resizeLast=0;collapsible=1;marginBottom=0;whiteSpace=wrap;html=1;fillColor=#99FFFF;fontColor=#303030;" parent="1" vertex="1">
          <mxGeometry x="1525" y="460" width="120" height="60" as="geometry">
            <mxRectangle x="1045" y="595" width="80" height="30" as="alternateBounds" />
          </mxGeometry>
        </mxCell>
        <mxCell id="6FVcj39iq6i3qzFbRGXr-141" value="Rotate door" style="text;strokeColor=none;fillColor=default;align=left;verticalAlign=middle;spacingLeft=4;spacingRight=4;overflow=hidden;points=[[0,0.5],[1,0.5]];portConstraint=eastwest;rotatable=0;whiteSpace=wrap;html=1;" parent="6FVcj39iq6i3qzFbRGXr-140" vertex="1">
          <mxGeometry y="30" width="120" height="30" as="geometry" />
        </mxCell>
        <mxCell id="6FVcj39iq6i3qzFbRGXr-146" value="" style="rounded=0;whiteSpace=wrap;html=1;fillColor=#FFCCCC;strokeColor=#9933FF;strokeWidth=2;" parent="1" vertex="1">
          <mxGeometry x="480" y="635" width="40" height="10" as="geometry" />
        </mxCell>
        <mxCell id="6FVcj39iq6i3qzFbRGXr-147" value="" style="rounded=0;whiteSpace=wrap;html=1;fillColor=#FFCCCC;strokeColor=#9933FF;strokeWidth=2;" parent="1" vertex="1">
          <mxGeometry x="360" y="475" width="40" height="10" as="geometry" />
        </mxCell>
        <mxCell id="6FVcj39iq6i3qzFbRGXr-153" style="edgeStyle=orthogonalEdgeStyle;rounded=0;orthogonalLoop=1;jettySize=auto;html=1;curved=1;strokeColor=#FFCCCC;exitX=0.085;exitY=0.008;exitDx=0;exitDy=0;exitPerimeter=0;" parent="1" source="6FVcj39iq6i3qzFbRGXr-151" edge="1">
          <mxGeometry relative="1" as="geometry">
            <mxPoint x="520" y="645" as="targetPoint" />
            <Array as="points">
              <mxPoint x="582" y="715" />
              <mxPoint x="520" y="715" />
            </Array>
          </mxGeometry>
        </mxCell>
        <mxCell id="6FVcj39iq6i3qzFbRGXr-156" style="edgeStyle=orthogonalEdgeStyle;rounded=0;orthogonalLoop=1;jettySize=auto;html=1;entryX=0;entryY=0.5;entryDx=0;entryDy=0;strokeColor=#FFCCCC;" parent="1" source="6FVcj39iq6i3qzFbRGXr-154" target="6FVcj39iq6i3qzFbRGXr-147" edge="1">
          <mxGeometry relative="1" as="geometry" />
        </mxCell>
        <mxCell id="6FVcj39iq6i3qzFbRGXr-154" value="Door LabSecret" style="swimlane;fontStyle=1;childLayout=stackLayout;horizontal=1;startSize=40;horizontalStack=0;resizeParent=1;resizeParentMax=0;resizeLast=0;collapsible=1;marginBottom=0;whiteSpace=wrap;html=1;fillColor=#FFCCCC;fontColor=#303030;" parent="1" vertex="1">
          <mxGeometry x="80" y="435" width="200" height="90" as="geometry" />
        </mxCell>
        <mxCell id="6FVcj39iq6i3qzFbRGXr-155" value="Closed secret labyrinth door;&lt;br&gt;Opens Trigger T says so;&lt;br&gt;Moves UP once." style="text;strokeColor=none;fillColor=default;align=left;verticalAlign=middle;spacingLeft=4;spacingRight=4;overflow=hidden;points=[[0,0.5],[1,0.5]];portConstraint=eastwest;rotatable=0;whiteSpace=wrap;html=1;" parent="6FVcj39iq6i3qzFbRGXr-154" vertex="1">
          <mxGeometry y="40" width="200" height="50" as="geometry" />
        </mxCell>
        <mxCell id="6FVcj39iq6i3qzFbRGXr-161" value="" style="endArrow=none;html=1;rounded=0;entryX=0;entryY=0;entryDx=0;entryDy=0;exitX=1;exitY=0;exitDx=0;exitDy=0;strokeWidth=3;strokeColor=#394C66;" parent="1" target="J1uk7EdWoCkrVQCFooa9-7" edge="1">
          <mxGeometry width="50" height="50" relative="1" as="geometry">
            <mxPoint x="360" y="800" as="sourcePoint" />
            <mxPoint x="360" y="640" as="targetPoint" />
          </mxGeometry>
        </mxCell>
        <mxCell id="6FVcj39iq6i3qzFbRGXr-157" value="" style="rounded=0;whiteSpace=wrap;html=1;fillColor=#FFCCCC;strokeColor=#9933FF;strokeWidth=2;" parent="1" vertex="1">
          <mxGeometry x="355" y="680" width="10" height="40" as="geometry" />
        </mxCell>
        <mxCell id="6FVcj39iq6i3qzFbRGXr-151" value="Door LabCorner" style="swimlane;fontStyle=1;childLayout=stackLayout;horizontal=1;startSize=40;horizontalStack=0;resizeParent=1;resizeParentMax=0;resizeLast=0;collapsible=1;marginBottom=0;whiteSpace=wrap;html=1;fillColor=#FFCCCC;fontColor=#303030;" parent="1" vertex="1">
          <mxGeometry x="565" y="750" width="205" height="87" as="geometry" />
        </mxCell>
        <mxCell id="6FVcj39iq6i3qzFbRGXr-152" value="Closed shortcut labyrinth door;&lt;br&gt;Opens when door LabSecret opens;&lt;br&gt;Moves UP once." style="text;strokeColor=none;fillColor=default;align=left;verticalAlign=middle;spacingLeft=4;spacingRight=4;overflow=hidden;points=[[0,0.5],[1,0.5]];portConstraint=eastwest;rotatable=0;whiteSpace=wrap;html=1;" parent="6FVcj39iq6i3qzFbRGXr-151" vertex="1">
          <mxGeometry y="40" width="205" height="47" as="geometry" />
        </mxCell>
        <mxCell id="6FVcj39iq6i3qzFbRGXr-172" style="edgeStyle=orthogonalEdgeStyle;rounded=0;orthogonalLoop=1;jettySize=auto;html=1;curved=1;entryX=0;entryY=0.5;entryDx=0;entryDy=0;strokeColor=#FF66FF;" parent="1" source="6FVcj39iq6i3qzFbRGXr-170" target="6FVcj39iq6i3qzFbRGXr-169" edge="1">
          <mxGeometry relative="1" as="geometry">
            <Array as="points">
              <mxPoint x="460" y="1125" />
              <mxPoint x="460" y="923" />
            </Array>
          </mxGeometry>
        </mxCell>
        <mxCell id="6FVcj39iq6i3qzFbRGXr-174" style="edgeStyle=orthogonalEdgeStyle;rounded=0;orthogonalLoop=1;jettySize=auto;html=1;entryX=0;entryY=0.75;entryDx=0;entryDy=0;curved=1;exitX=1.001;exitY=-0.011;exitDx=0;exitDy=0;exitPerimeter=0;strokeColor=#FF66FF;" parent="1" source="6FVcj39iq6i3qzFbRGXr-171" target="6FVcj39iq6i3qzFbRGXr-168" edge="1">
          <mxGeometry relative="1" as="geometry">
            <Array as="points">
              <mxPoint x="445" y="1110" />
              <mxPoint x="445" y="889" />
            </Array>
          </mxGeometry>
        </mxCell>
        <mxCell id="6FVcj39iq6i3qzFbRGXr-175" style="edgeStyle=orthogonalEdgeStyle;rounded=0;orthogonalLoop=1;jettySize=auto;html=1;entryX=0;entryY=0.5;entryDx=0;entryDy=0;curved=1;strokeColor=#FF66FF;" parent="1" source="6FVcj39iq6i3qzFbRGXr-170" target="6FVcj39iq6i3qzFbRGXr-167" edge="1">
          <mxGeometry relative="1" as="geometry">
            <Array as="points">
              <mxPoint x="435" y="1095" />
              <mxPoint x="435" y="838" />
            </Array>
          </mxGeometry>
        </mxCell>
        <mxCell id="6FVcj39iq6i3qzFbRGXr-170" value="TagTriggers A.#" style="swimlane;fontStyle=1;childLayout=stackLayout;horizontal=1;startSize=30;horizontalStack=0;resizeParent=1;resizeParentMax=0;resizeLast=0;collapsible=1;marginBottom=0;whiteSpace=wrap;html=1;fillColor=#FF66FF;fontColor=#303030;" parent="1" vertex="1">
          <mxGeometry x="80" y="1080" width="270" height="75" as="geometry" />
        </mxCell>
        <mxCell id="6FVcj39iq6i3qzFbRGXr-171" value="Signalize when correct Objects placed/removed;&lt;br&gt;Accepts objects with tag: &quot;TreasureA#&quot;" style="text;strokeColor=none;fillColor=default;align=left;verticalAlign=middle;spacingLeft=4;spacingRight=4;overflow=hidden;points=[[0,0.5],[1,0.5]];portConstraint=eastwest;rotatable=0;whiteSpace=wrap;html=1;" parent="6FVcj39iq6i3qzFbRGXr-170" vertex="1">
          <mxGeometry y="30" width="270" height="45" as="geometry" />
        </mxCell>
        <mxCell id="6FVcj39iq6i3qzFbRGXr-176" value="Locker A" style="swimlane;fontStyle=1;childLayout=stackLayout;horizontal=1;startSize=30;horizontalStack=0;resizeParent=1;resizeParentMax=0;resizeLast=0;collapsible=1;marginBottom=0;whiteSpace=wrap;html=1;fillColor=#66B2FF;fontColor=#303030;" parent="1" vertex="1">
          <mxGeometry x="80" y="915" width="240" height="65" as="geometry" />
        </mxCell>
        <mxCell id="6FVcj39iq6i3qzFbRGXr-177" value="Stands posts for treasures;&lt;br&gt;Lights ON when no accepted Object there." style="text;strokeColor=none;fillColor=default;align=left;verticalAlign=middle;spacingLeft=4;spacingRight=4;overflow=hidden;points=[[0,0.5],[1,0.5]];portConstraint=eastwest;rotatable=0;whiteSpace=wrap;html=1;" parent="6FVcj39iq6i3qzFbRGXr-176" vertex="1">
          <mxGeometry y="30" width="240" height="35" as="geometry" />
        </mxCell>
        <mxCell id="6FVcj39iq6i3qzFbRGXr-180" style="edgeStyle=orthogonalEdgeStyle;rounded=0;orthogonalLoop=1;jettySize=auto;html=1;entryX=0.983;entryY=0.829;entryDx=0;entryDy=0;curved=1;entryPerimeter=0;strokeColor=#FF66FF;" parent="1" source="6FVcj39iq6i3qzFbRGXr-178" target="6FVcj39iq6i3qzFbRGXr-164" edge="1">
          <mxGeometry relative="1" as="geometry">
            <Array as="points">
              <mxPoint x="1025" y="1095" />
              <mxPoint x="1025" y="850" />
              <mxPoint x="939" y="850" />
            </Array>
          </mxGeometry>
        </mxCell>
        <mxCell id="6FVcj39iq6i3qzFbRGXr-182" style="edgeStyle=orthogonalEdgeStyle;rounded=0;orthogonalLoop=1;jettySize=auto;html=1;entryX=1;entryY=0.5;entryDx=0;entryDy=0;curved=1;strokeColor=#FF66FF;" parent="1" source="6FVcj39iq6i3qzFbRGXr-178" target="6FVcj39iq6i3qzFbRGXr-166" edge="1">
          <mxGeometry relative="1" as="geometry">
            <Array as="points">
              <mxPoint x="995" y="1125" />
              <mxPoint x="995" y="922" />
            </Array>
          </mxGeometry>
        </mxCell>
        <mxCell id="6FVcj39iq6i3qzFbRGXr-178" value="TagTriggers B.#" style="swimlane;fontStyle=1;childLayout=stackLayout;horizontal=1;startSize=30;horizontalStack=0;resizeParent=1;resizeParentMax=0;resizeLast=0;collapsible=1;marginBottom=0;whiteSpace=wrap;html=1;fillColor=#FF66FF;fontColor=#303030;" parent="1" vertex="1">
          <mxGeometry x="1120" y="1080" width="270" height="75" as="geometry" />
        </mxCell>
        <mxCell id="6FVcj39iq6i3qzFbRGXr-179" value="Signalize when correct Objects placed/removed;&lt;br&gt;Accepts objects with tag: &quot;TreasureB#&quot;" style="text;strokeColor=none;fillColor=default;align=left;verticalAlign=middle;spacingLeft=4;spacingRight=4;overflow=hidden;points=[[0,0.5],[1,0.5]];portConstraint=eastwest;rotatable=0;whiteSpace=wrap;html=1;" parent="6FVcj39iq6i3qzFbRGXr-178" vertex="1">
          <mxGeometry y="30" width="270" height="45" as="geometry" />
        </mxCell>
        <mxCell id="6FVcj39iq6i3qzFbRGXr-181" style="edgeStyle=orthogonalEdgeStyle;rounded=0;orthogonalLoop=1;jettySize=auto;html=1;entryX=1;entryY=0.75;entryDx=0;entryDy=0;curved=1;strokeColor=#FF66FF;" parent="1" source="6FVcj39iq6i3qzFbRGXr-179" target="6FVcj39iq6i3qzFbRGXr-165" edge="1">
          <mxGeometry relative="1" as="geometry">
            <Array as="points">
              <mxPoint x="1010" y="1110" />
              <mxPoint x="1010" y="889" />
            </Array>
          </mxGeometry>
        </mxCell>
        <mxCell id="6FVcj39iq6i3qzFbRGXr-185" value="Treasures" style="swimlane;fontStyle=1;childLayout=stackLayout;horizontal=1;startSize=30;horizontalStack=0;resizeParent=1;resizeParentMax=0;resizeLast=0;collapsible=1;marginBottom=0;whiteSpace=wrap;html=1;fillColor=#FFFFFF;fontColor=#303030;" parent="1" vertex="1">
          <mxGeometry x="1525" y="540" width="120" height="60" as="geometry">
            <mxRectangle x="1045" y="595" width="80" height="30" as="alternateBounds" />
          </mxGeometry>
        </mxCell>
        <mxCell id="6FVcj39iq6i3qzFbRGXr-186" value="Treasure for hunting" style="text;strokeColor=none;fillColor=default;align=left;verticalAlign=middle;spacingLeft=4;spacingRight=4;overflow=hidden;points=[[0,0.5],[1,0.5]];portConstraint=eastwest;rotatable=0;whiteSpace=wrap;html=1;" parent="6FVcj39iq6i3qzFbRGXr-185" vertex="1">
          <mxGeometry y="30" width="120" height="30" as="geometry" />
        </mxCell>
        <mxCell id="6FVcj39iq6i3qzFbRGXr-187" value="" style="rounded=0;whiteSpace=wrap;html=1;fillColor=#FFCCCC;strokeColor=#99FFFF;strokeWidth=2;" parent="1" vertex="1">
          <mxGeometry x="560" y="358" width="40" height="5" as="geometry" />
        </mxCell>
        <mxCell id="6FVcj39iq6i3qzFbRGXr-188" value="" style="rounded=0;whiteSpace=wrap;html=1;fillColor=#FFCCCC;strokeColor=#99FFFF;strokeWidth=2;" parent="1" vertex="1">
          <mxGeometry x="597" y="320" width="5" height="40" as="geometry" />
        </mxCell>
        <mxCell id="6FVcj39iq6i3qzFbRGXr-190" value="" style="rounded=0;whiteSpace=wrap;html=1;fillColor=none;strokeWidth=1;strokeColor=#99FFFF;" parent="1" vertex="1">
          <mxGeometry x="1425" y="485" width="40" height="10" as="geometry" />
        </mxCell>
        <mxCell id="6FVcj39iq6i3qzFbRGXr-195" style="edgeStyle=orthogonalEdgeStyle;rounded=0;orthogonalLoop=1;jettySize=auto;html=1;curved=1;strokeColor=#FFCCCC;" parent="1" source="6FVcj39iq6i3qzFbRGXr-193" edge="1">
          <mxGeometry relative="1" as="geometry">
            <mxPoint x="600" y="320" as="targetPoint" />
            <Array as="points">
              <mxPoint x="470" y="120" />
              <mxPoint x="470" y="280" />
              <mxPoint x="600" y="280" />
            </Array>
          </mxGeometry>
        </mxCell>
        <mxCell id="6FVcj39iq6i3qzFbRGXr-193" value="Door RotatingB2" style="swimlane;fontStyle=1;childLayout=stackLayout;horizontal=1;startSize=40;horizontalStack=0;resizeParent=1;resizeParentMax=0;resizeLast=0;collapsible=1;marginBottom=0;whiteSpace=wrap;html=1;fillColor=#FFCCCC;fontColor=#303030;" parent="1" vertex="1">
          <mxGeometry x="80" y="60" width="250" height="110" as="geometry" />
        </mxCell>
        <mxCell id="6FVcj39iq6i3qzFbRGXr-194" value="Gate door: need to see outside;&lt;br&gt;Initial state: closes B.2 treasure;&lt;br&gt;When Activator initiated - rotates clock wise;&lt;br&gt;Rock walls ROTATES once." style="text;strokeColor=none;fillColor=default;align=left;verticalAlign=middle;spacingLeft=4;spacingRight=4;overflow=hidden;points=[[0,0.5],[1,0.5]];portConstraint=eastwest;rotatable=0;whiteSpace=wrap;html=1;" parent="6FVcj39iq6i3qzFbRGXr-193" vertex="1">
          <mxGeometry y="40" width="250" height="70" as="geometry" />
        </mxCell>
        <mxCell id="isxg0w8kor7gR2DkEYVr-3" value="" style="endArrow=none;html=1;rounded=0;strokeColor=#4F6662;strokeWidth=3;" parent="1" edge="1">
          <mxGeometry width="50" height="50" relative="1" as="geometry">
            <mxPoint x="720" y="400" as="sourcePoint" />
            <mxPoint x="720" y="400" as="targetPoint" />
          </mxGeometry>
        </mxCell>
        <mxCell id="isxg0w8kor7gR2DkEYVr-12" style="edgeStyle=orthogonalEdgeStyle;rounded=0;orthogonalLoop=1;jettySize=auto;html=1;startArrow=block;startFill=1;endArrow=block;endFill=1;" parent="1" source="isxg0w8kor7gR2DkEYVr-11" edge="1">
          <mxGeometry relative="1" as="geometry">
            <mxPoint x="680" y="395" as="targetPoint" />
            <Array as="points">
              <mxPoint x="680" y="395" />
            </Array>
          </mxGeometry>
        </mxCell>
        <mxCell id="isxg0w8kor7gR2DkEYVr-11" value="" style="rounded=0;whiteSpace=wrap;html=1;fillColor=#FFCCCC;strokeColor=#9933FF;strokeWidth=2;" parent="1" vertex="1">
          <mxGeometry x="720" y="390" width="40" height="10" as="geometry" />
        </mxCell>
        <mxCell id="isxg0w8kor7gR2DkEYVr-14" style="edgeStyle=orthogonalEdgeStyle;rounded=0;orthogonalLoop=1;jettySize=auto;html=1;startArrow=block;startFill=1;endArrow=block;endFill=1;" parent="1" source="isxg0w8kor7gR2DkEYVr-13" edge="1">
          <mxGeometry relative="1" as="geometry">
            <mxPoint x="645" y="400" as="targetPoint" />
          </mxGeometry>
        </mxCell>
        <mxCell id="isxg0w8kor7gR2DkEYVr-13" value="" style="rounded=0;whiteSpace=wrap;html=1;fillColor=#FFCCCC;strokeColor=#9933FF;strokeWidth=2;" parent="1" vertex="1">
          <mxGeometry x="640" y="320" width="10" height="40" as="geometry" />
        </mxCell>
        <mxCell id="6FVcj39iq6i3qzFbRGXr-20" value="" style="endArrow=classic;html=1;rounded=0;edgeStyle=orthogonalEdgeStyle;curved=1;" parent="1" edge="1">
          <mxGeometry width="50" height="50" relative="1" as="geometry">
            <mxPoint x="600" y="320" as="sourcePoint" />
            <mxPoint x="640" y="360" as="targetPoint" />
          </mxGeometry>
        </mxCell>
        <mxCell id="isxg0w8kor7gR2DkEYVr-20" style="edgeStyle=orthogonalEdgeStyle;rounded=0;orthogonalLoop=1;jettySize=auto;html=1;curved=1;strokeColor=#D4E1F5;endArrow=oval;endFill=1;" parent="1" source="isxg0w8kor7gR2DkEYVr-18" edge="1">
          <mxGeometry relative="1" as="geometry">
            <Array as="points">
              <mxPoint x="570" y="260" />
              <mxPoint x="660" y="260" />
            </Array>
            <mxPoint x="659" y="329" as="targetPoint" />
          </mxGeometry>
        </mxCell>
        <mxCell id="isxg0w8kor7gR2DkEYVr-18" value="Rooms" style="swimlane;fontStyle=1;childLayout=stackLayout;horizontal=1;startSize=30;horizontalStack=0;resizeParent=1;resizeParentMax=0;resizeLast=0;collapsible=1;marginBottom=0;whiteSpace=wrap;html=1;fillColor=#D4E1F5;fontColor=#303030;" parent="1" vertex="1">
          <mxGeometry x="490" y="140" width="140" height="60" as="geometry" />
        </mxCell>
        <mxCell id="isxg0w8kor7gR2DkEYVr-19" value="Cage" style="text;strokeColor=none;fillColor=default;align=left;verticalAlign=middle;spacingLeft=4;spacingRight=4;overflow=hidden;points=[[0,0.5],[1,0.5]];portConstraint=eastwest;rotatable=0;whiteSpace=wrap;html=1;" parent="isxg0w8kor7gR2DkEYVr-18" vertex="1">
          <mxGeometry y="30" width="140" height="30" as="geometry" />
        </mxCell>
        <mxCell id="isxg0w8kor7gR2DkEYVr-21" value="Door LockCage" style="swimlane;fontStyle=1;childLayout=stackLayout;horizontal=1;startSize=40;horizontalStack=0;resizeParent=1;resizeParentMax=0;resizeLast=0;collapsible=1;marginBottom=0;whiteSpace=wrap;html=1;fillColor=#FFCCCC;fontColor=#303030;" parent="1" vertex="1">
          <mxGeometry x="920" y="80" width="220" height="110" as="geometry" />
        </mxCell>
        <mxCell id="isxg0w8kor7gR2DkEYVr-22" value="Gate door: need to see outside;&lt;br&gt;Initial state: opened;&lt;br&gt;Signal to close: TriggerB2;&lt;br&gt;Signal to open: TriggerB2 or TriggerD2." style="text;strokeColor=none;fillColor=default;align=left;verticalAlign=middle;spacingLeft=4;spacingRight=4;overflow=hidden;points=[[0,0.5],[1,0.5]];portConstraint=eastwest;rotatable=0;whiteSpace=wrap;html=1;" parent="isxg0w8kor7gR2DkEYVr-21" vertex="1">
          <mxGeometry y="40" width="220" height="70" as="geometry" />
        </mxCell>
        <mxCell id="isxg0w8kor7gR2DkEYVr-23" style="edgeStyle=orthogonalEdgeStyle;rounded=0;orthogonalLoop=1;jettySize=auto;html=1;curved=1;strokeColor=#FFCCCC;" parent="1" source="isxg0w8kor7gR2DkEYVr-22" target="isxg0w8kor7gR2DkEYVr-11" edge="1">
          <mxGeometry relative="1" as="geometry">
            <Array as="points">
              <mxPoint x="740" y="155" />
            </Array>
          </mxGeometry>
        </mxCell>
        <mxCell id="isxg0w8kor7gR2DkEYVr-24" value="TagTriggerB2" style="swimlane;fontStyle=1;childLayout=stackLayout;horizontal=1;startSize=30;horizontalStack=0;resizeParent=1;resizeParentMax=0;resizeLast=0;collapsible=1;marginBottom=0;whiteSpace=wrap;html=1;fillColor=#FF66FF;fontColor=#303030;" parent="1" vertex="1">
          <mxGeometry x="80" y="190" width="250" height="75" as="geometry" />
        </mxCell>
        <mxCell id="isxg0w8kor7gR2DkEYVr-25" value="Signalize when treasure B2 placed/removed;&lt;br&gt;Accepts objects with tag:&quot;UnlockB2&quot;." style="text;strokeColor=none;fillColor=default;align=left;verticalAlign=middle;spacingLeft=4;spacingRight=4;overflow=hidden;points=[[0,0.5],[1,0.5]];portConstraint=eastwest;rotatable=0;whiteSpace=wrap;html=1;" parent="isxg0w8kor7gR2DkEYVr-24" vertex="1">
          <mxGeometry y="30" width="250" height="45" as="geometry" />
        </mxCell>
        <mxCell id="isxg0w8kor7gR2DkEYVr-33" value="Rooms" style="swimlane;fontStyle=1;childLayout=stackLayout;horizontal=1;startSize=30;horizontalStack=0;resizeParent=1;resizeParentMax=0;resizeLast=0;collapsible=1;marginBottom=0;whiteSpace=wrap;html=1;fillColor=#D4E1F5;fontColor=#303030;" parent="1" vertex="1">
          <mxGeometry x="372" y="506" width="105" height="65" as="geometry" />
        </mxCell>
        <mxCell id="isxg0w8kor7gR2DkEYVr-34" value="South West&lt;br&gt;Labyrinth corner" style="text;strokeColor=none;fillColor=default;align=left;verticalAlign=middle;spacingLeft=4;spacingRight=4;overflow=hidden;points=[[0,0.5],[1,0.5]];portConstraint=eastwest;rotatable=0;whiteSpace=wrap;html=1;" parent="isxg0w8kor7gR2DkEYVr-33" vertex="1">
          <mxGeometry y="30" width="105" height="35" as="geometry" />
        </mxCell>
        <mxCell id="mj2b4z6A1RMrsA1IUXk8-4" style="edgeStyle=orthogonalEdgeStyle;rounded=0;orthogonalLoop=1;jettySize=auto;html=1;curved=1;strokeColor=#D4E1F5;entryX=0.788;entryY=0.988;entryDx=0;entryDy=0;entryPerimeter=0;endArrow=oval;endFill=1;" parent="1" source="mj2b4z6A1RMrsA1IUXk8-1" edge="1">
          <mxGeometry relative="1" as="geometry">
            <mxPoint x="864.56" y="625.28" as="targetPoint" />
            <Array as="points">
              <mxPoint x="865" y="751" />
            </Array>
          </mxGeometry>
        </mxCell>
        <mxCell id="mj2b4z6A1RMrsA1IUXk8-1" value="Rooms" style="swimlane;fontStyle=1;childLayout=stackLayout;horizontal=1;startSize=30;horizontalStack=0;resizeParent=1;resizeParentMax=0;resizeLast=0;collapsible=1;marginBottom=0;whiteSpace=wrap;html=1;fillColor=#D4E1F5;fontColor=#303030;" parent="1" vertex="1">
          <mxGeometry x="776" y="720" width="72" height="67" as="geometry" />
        </mxCell>
        <mxCell id="mj2b4z6A1RMrsA1IUXk8-2" value="Vault" style="text;strokeColor=none;fillColor=default;align=left;verticalAlign=middle;spacingLeft=4;spacingRight=4;overflow=hidden;points=[[0,0.5],[1,0.5]];portConstraint=eastwest;rotatable=0;whiteSpace=wrap;html=1;" parent="mj2b4z6A1RMrsA1IUXk8-1" vertex="1">
          <mxGeometry y="30" width="72" height="37" as="geometry" />
        </mxCell>
      </root>
    </mxGraphModel>
  </diagram>
</mxfile>
